<svg xmlns="http://www.w3.org/2000/svg" xmlns:xlink="http://www.w3.org/1999/xlink" version="1.1" id="Layer_1" x="0px" y="0px" viewBox="0 0 512.001 512.001" style="enable-background:new 0 0 512.001 512.001;" xml:space="preserve">
<g>
	<path style="fill:#EAE8E8;" d="M93.12,445.99h113.36h41.112h45.166l153.229-221.945V56.74c0-26.872-21.785-48.656-48.655-48.656   H56.739c-26.87,0-48.655,21.784-48.655,48.656v190.85v149.743c0,26.872,21.785,48.656,48.655,48.656h11.053"/>
	<path style="fill:#EAE8E8;" d="M411.08,99.837h34.908V56.74c0-26.872-21.785-48.656-48.655-48.656H56.739   c-26.87,0-48.655,21.784-48.655,48.656v43.096h377.12"/>
</g>
<circle style="fill:#F57555;" cx="65.606" cy="55.908" r="14.17"/>
<circle style="fill:#F4B846;" cx="114.494" cy="55.908" r="14.17"/>
<circle style="fill:#62B07E;" cx="163.387" cy="55.908" r="14.17"/>
<polygon style="fill:#F57555;" points="295.88,441.468 299.697,270.417 252.766,270.417 256.684,445.99 292.758,445.99 "/>
<polygon style="fill:#3E495A;" points="292.151,231.926 260.312,231.926 252.766,270.417 299.697,270.417 "/>
<path style="fill:#F2F2F2;" d="M289.251,231.926c5.276-7.918,8.369-17.414,8.369-27.644c0-16.964-8.461-31.947-21.388-40.982  c-12.924,9.035-21.385,24.017-21.385,40.982c0,10.229,3.092,19.727,8.369,27.644H289.251z"/>
<polygon style="fill:#ED963E;" points="395.808,296.726 395.808,223.89 364.983,163.914 334.158,223.89 334.158,386.023 "/>
<polygon style="fill:#F7DFB7;" points="364.983,163.914 334.269,223.707 395.697,223.707 "/>
<polyline style="fill:#D8D4D4;" points="445.988,99.837 445.988,127.731 8.084,127.731 8.084,99.837 "/>
<rect x="46.042" y="164.993" style="fill:#6AC6D8;" width="162.762" height="80.303"/>
<path style="fill:#F4B846;" d="M252.766,503.916h251.149V140.137L252.766,503.916z M455.366,453.255H348.585l106.782-154.667  V453.255z"/>
<g>
	<path style="fill:#231F20;" d="M65.606,33.654c-12.272,0-22.254,9.983-22.254,22.254s9.983,22.255,22.254,22.255   c12.272,0,22.255-9.983,22.255-22.255S77.878,33.654,65.606,33.654z M65.606,61.995c-3.355,0-6.086-2.73-6.086-6.087   c0-3.355,2.73-6.086,6.086-6.086c3.355,0,6.087,2.73,6.087,6.086C71.693,59.264,68.963,61.995,65.606,61.995z"/>
	<path style="fill:#231F20;" d="M114.497,33.654c-12.273,0-22.256,9.983-22.256,22.254s9.985,22.255,22.256,22.255   c12.271,0,22.253-9.983,22.253-22.255S126.767,33.654,114.497,33.654z M114.497,61.995c-3.357,0-6.088-2.73-6.088-6.087   c0-3.355,2.731-6.086,6.088-6.086c3.354,0,6.085,2.73,6.085,6.086C120.581,59.264,117.852,61.995,114.497,61.995z"/>
	<path style="fill:#231F20;" d="M163.383,33.654c-12.272,0-22.254,9.983-22.254,22.254s9.983,22.255,22.254,22.255   c12.272,0,22.254-9.983,22.254-22.255S175.655,33.654,163.383,33.654z M163.383,61.995c-3.355,0-6.086-2.73-6.086-6.087   c0-3.355,2.73-6.086,6.086-6.086c3.355,0,6.086,2.73,6.086,6.086C169.47,59.264,166.738,61.995,163.383,61.995z"/>
	<path style="fill:#231F20;" d="M406.771,55.908c0-4.466-3.618-8.084-8.084-8.084H273.986c-4.466,0-8.084,3.618-8.084,8.084   s3.618,8.084,8.084,8.084h124.701C403.152,63.992,406.771,60.374,406.771,55.908z"/>
	<path style="fill:#231F20;" d="M506.321,132.419c-3.374-1.052-7.046,0.213-9.058,3.125l-43.191,62.561v-70.375V99.837V56.74   c0-31.286-25.452-56.74-56.739-56.74H56.739C25.452,0,0,25.453,0,56.74v43.096v27.894v269.603c0,31.286,25.452,56.74,56.739,56.74   h11.053c4.466,0,8.084-3.618,8.084-8.084c0-4.466-3.618-8.084-8.084-8.084H56.739c-22.371,0-40.571-18.2-40.571-40.572V135.815   h421.735v85.71l-34.011,49.263V223.89c0-1.285-0.306-2.552-0.894-3.696l-30.826-59.975c-0.857-1.666-2.246-2.947-3.898-3.683   c-0.017-0.008-0.033-0.018-0.051-0.026c-1.005-0.44-2.105-0.678-3.242-0.678c-0.378,0-0.753,0.027-1.122,0.079   c-0.071,0.01-0.139,0.032-0.21,0.044c-0.295,0.05-0.59,0.103-0.875,0.184c-0.064,0.018-0.123,0.047-0.186,0.067   c-0.288,0.089-0.573,0.184-0.848,0.304c-0.07,0.031-0.135,0.073-0.204,0.107c-1.582,0.747-2.916,1.991-3.745,3.604l-30.826,59.975   c-0.587,1.144-0.894,2.41-0.894,3.696v159.615l-21.509,31.155l3.213-144.011c0-0.002,0-0.004,0-0.004l0.001-0.047   c0.007-0.276-0.002-0.551-0.025-0.825c-0.005-0.07-0.019-0.141-0.027-0.211c-0.023-0.213-0.049-0.426-0.088-0.636   c-0.004-0.02-0.004-0.042-0.009-0.063l-7.545-38.491c-0.053-0.271-0.123-0.535-0.202-0.794c3.819-7.854,5.82-16.466,5.82-25.295   c0-18.939-9.286-36.736-24.84-47.607c-2.783-1.943-6.482-1.945-9.263,0.001c-15.553,10.872-24.838,28.669-24.838,47.606   c0,8.828,1.999,17.438,5.818,25.292c-0.08,0.261-0.15,0.525-0.203,0.798l-7.545,38.491c-0.004,0.02-0.005,0.042-0.009,0.063   c-0.04,0.211-0.066,0.426-0.089,0.641c-0.008,0.069-0.022,0.137-0.027,0.206c-0.022,0.273-0.03,0.549-0.025,0.825l0.001,0.046   v0.003l3.733,167.258H93.12c-4.466,0-8.084,3.618-8.084,8.084s3.618,8.084,8.084,8.084h163.564h20.67l-31.24,45.249   c-1.707,2.473-1.902,5.688-0.506,8.349c1.396,2.661,4.152,4.328,7.158,4.328h251.149c4.466,0,8.084-3.618,8.084-8.084v-363.78   C512,136.599,509.699,133.471,506.321,132.419z M16.168,119.646v-11.725h369.036c4.466,0,8.084-3.618,8.084-8.084   c0-4.466-3.618-8.084-8.084-8.084H16.168V56.74c0-22.372,18.2-40.572,40.571-40.572h340.593c22.371,0,40.571,18.2,40.571,40.572   v35.012H411.08c-4.465,0-8.084,3.618-8.084,8.084c0,4.466,3.62,8.084,8.084,8.084h26.823v11.725H16.168z M378.882,307.014   l-6.47,9.371v-67.93c0-4.466-3.618-8.084-8.084-8.084s-8.084,3.618-8.084,8.084v91.348l-14.002,20.281V231.792h45.482v62.414   L378.882,307.014z M368.776,188.992l13.68,26.632H347.51l13.68-26.632H368.776z M266.965,240.011h18.532l4.376,22.322h-27.285   L266.965,240.011z M276.232,173.68c8.417,7.872,13.303,18.938,13.303,30.603c0,6.863-1.671,13.548-4.862,19.559h-16.88   c-3.192-6.011-4.862-12.697-4.862-19.559C262.931,192.619,267.816,181.553,276.232,173.68z M261.033,278.501h30.398l-3.557,159.404   h-23.283L261.033,278.501z M495.832,495.832h-227.66l17.862-25.872l7.455,5.152c1.402,0.969,3.003,1.435,4.589,1.435   c2.565,0,5.089-1.219,6.658-3.489c2.538-3.672,1.619-8.707-2.054-11.247l-7.461-5.157l12.813-18.559l7.679,5.308   c1.402,0.969,3.003,1.435,4.589,1.435c2.565,0,5.089-1.219,6.658-3.489c2.537-3.672,1.619-8.707-2.054-11.247l-7.685-5.311   l12.813-18.559l7.691,5.314c1.403,0.969,3.003,1.435,4.589,1.435c2.565,0,5.09-1.219,6.658-3.489   c2.538-3.673,1.618-8.708-2.054-11.247l-7.697-5.318l12.813-18.558l7.703,5.323c1.403,0.968,3.004,1.434,4.589,1.434   c2.566,0,5.09-1.219,6.659-3.489c2.537-3.673,1.617-8.708-2.056-11.248l-7.708-5.326l12.813-18.56l7.715,5.33   c1.403,0.969,3.004,1.435,4.589,1.435c2.566,0,5.09-1.219,6.658-3.489c2.538-3.673,1.618-8.708-2.054-11.247l-7.72-5.335   l12.813-18.56l7.729,5.339c1.402,0.968,3.003,1.434,4.588,1.434c2.566,0,5.09-1.219,6.659-3.49   c2.537-3.672,1.617-8.708-2.057-11.247l-7.732-5.342l12.813-18.558l7.737,5.346c1.403,0.969,3.003,1.435,4.589,1.435   c2.565,0,5.09-1.219,6.658-3.489c2.538-3.672,1.619-8.708-2.054-11.247l-7.743-5.351l12.813-18.559l7.751,5.355   c1.403,0.968,3.004,1.434,4.589,1.434c2.566,0,5.09-1.219,6.659-3.489c2.537-3.673,1.617-8.708-2.056-11.248l-7.755-5.358   l12.624-18.285l7.733,5.342c1.402,0.968,3.003,1.434,4.588,1.434c2.566,0,5.09-1.219,6.659-3.49   c2.537-3.672,1.617-8.708-2.057-11.247l-7.736-5.344l24.803-35.933V495.832z"/>
	<path style="fill:#231F20;" d="M457.771,290.87c-3.374-1.051-7.046,0.213-9.058,3.125L341.932,448.662   c-1.707,2.473-1.902,5.688-0.506,8.349c1.396,2.661,4.153,4.328,7.158,4.328h106.782c4.466,0,8.084-3.618,8.084-8.084V298.588   C463.451,295.05,461.149,291.922,457.771,290.87z M447.282,445.171H363.99l83.292-120.644V445.171z"/>
	<path style="fill:#231F20;" d="M46.042,253.376h162.762c4.466,0,8.084-3.618,8.084-8.084v-80.299c0-4.466-3.618-8.084-8.084-8.084   H46.042c-4.466,0-8.084,3.618-8.084,8.084v80.299C37.958,249.757,41.577,253.376,46.042,253.376z M54.126,173.076H200.72v64.13   H54.126C54.126,237.207,54.126,173.076,54.126,173.076z"/>
	<path style="fill:#231F20;" d="M46.042,289.468h162.762c4.466,0,8.084-3.618,8.084-8.084s-3.618-8.084-8.084-8.084H46.042   c-4.466,0-8.084,3.618-8.084,8.084C37.958,285.848,41.577,289.468,46.042,289.468z"/>
	<path style="fill:#231F20;" d="M46.042,361.652h162.762c4.466,0,8.084-3.618,8.084-8.084c0-4.465-3.618-8.084-8.084-8.084H46.042   c-4.466,0-8.084,3.62-8.084,8.084C37.958,358.032,41.577,361.652,46.042,361.652z"/>
	<path style="fill:#231F20;" d="M46.042,325.56h162.762c4.466,0,8.084-3.618,8.084-8.084s-3.618-8.084-8.084-8.084H46.042   c-4.466,0-8.084,3.618-8.084,8.084C37.958,321.941,41.577,325.56,46.042,325.56z"/>
	<path style="fill:#231F20;" d="M46.042,397.743h162.762c4.466,0,8.084-3.618,8.084-8.084c0-4.465-3.618-8.084-8.084-8.084H46.042   c-4.466,0-8.084,3.62-8.084,8.084C37.958,394.125,41.577,397.743,46.042,397.743z"/>
</g>
<g style="opacity:0.1;">
	
		<rect x="349.444" y="166.837" transform="matrix(-0.8223 -0.569 0.569 -0.8223 469.0276 791.3808)" style="fill:#231F20;" width="17.246" height="311.254"/>
</g>
<g style="opacity:0.1;">
	<path style="fill:#231F20;" d="M33.331,397.334V247.589V56.74c0-26.872,21.785-48.656,48.655-48.656H56.739   c-26.87,0-48.655,21.784-48.655,48.656v190.85v149.743c0,26.872,21.785,48.656,48.655,48.656h11.053h14.194   C55.116,445.99,33.331,424.205,33.331,397.334z"/>
</g>
<g>
</g>
<g>
</g>
<g>
</g>
<g>
</g>
<g>
</g>
<g>
</g>
<g>
</g>
<g>
</g>
<g>
</g>
<g>
</g>
<g>
</g>
<g>
</g>
<g>
</g>
<g>
</g>
<g>
</g>
</svg>