<svg xmlns="http://www.w3.org/2000/svg" xmlns:xlink="http://www.w3.org/1999/xlink" version="1.1" id="Layer_1" x="0px" y="0px" viewBox="0 0 512.003 512.003" style="enable-background:new 0 0 512.003 512.003;" xml:space="preserve">
<g>
	<rect x="151.755" y="246.02" style="fill:#FCCF8B;" width="92.41" height="198.439"/>
	<rect x="244.176" y="254.715" style="fill:#FCCF8B;" width="37.659" height="181.05"/>
	<path style="fill:#FCCF8B;" d="M485.064,262.476l-88.545-2.578h-0.484l7.734-50.212c0,0,9.328-43-23.672-43h-0.431   c-9.73,0-15.328,8.935-17.621,17.622l-9.928,36.54c0,0-10.019,41.628-70.282,41.628v11.521v41.231v59.51v34.57v14.598h29.019   c0,0,41.552,24.183,145.694,9.719c8.79-1.599,15.461-9.28,15.461-18.531v-1.435c0-10.412-8.443-18.853-18.853-18.853h10.637   c10.412,0,18.853-8.438,18.853-18.851v-6.407c0-10.412-8.441-18.853-18.853-18.853h10.64c10.408,0,18.851-8.438,18.851-18.851   v-6.407c0-10.412-8.443-18.853-18.851-18.853h10.633c10.414,0,18.855-8.438,18.855-18.851v-6.407   C503.919,270.915,495.479,262.476,485.064,262.476z"/>
</g>
<rect x="151.755" y="246.02" style="fill:#5D6A7C;" width="92.41" height="198.439"/>
<g style="opacity:0.1;">
	<rect x="151.755" y="246.02" style="fill:#231F20;" width="25.551" height="198.439"/>
</g>
<g>
	<circle style="fill:#E0DCDC;" cx="194.485" cy="400.5" r="13.686"/>
	<rect x="244.176" y="254.715" style="fill:#E0DCDC;" width="37.659" height="181.05"/>
</g>
<path style="fill:#6AC6D8;" d="M151.76,246.023h92.415v8.69h37.659v7.763c60.264,0,70.282-41.628,70.282-41.628l9.928-36.54  c0.949-3.592,2.473-7.215,4.61-10.244C336.11,111.02,271.513,67.545,196.759,67.545C92.553,67.545,8.081,152.02,8.081,256.223  c0,1.835,0.033,3.661,0.084,5.482c0.017,0.576,0.044,1.149,0.064,1.724c0.051,1.261,0.108,2.517,0.181,3.771  c0.036,0.651,0.075,1.294,0.117,1.943c0.084,1.212,0.177,2.42,0.282,3.626c0.055,0.614,0.103,1.232,0.164,1.843  c0.137,1.387,0.287,2.767,0.453,4.146c0.046,0.404,0.088,0.812,0.139,1.216c0.223,1.773,0.473,3.539,0.739,5.297  c0.071,0.429,0.148,0.857,0.214,1.288c0.217,1.33,0.442,2.656,0.682,3.975c0.115,0.61,0.234,1.216,0.353,1.821  c0.221,1.157,0.457,2.309,0.7,3.455c0.135,0.627,0.269,1.252,0.408,1.875c0.265,1.185,0.545,2.358,0.834,3.535  c0.095,0.4,0.181,0.806,0.282,1.206l0.029,0.08c3.356,13.314,8.133,26.061,14.152,38.078l0.044,0.13  c0.106,0.204,0.221,0.404,0.322,0.61c0.844,1.665,1.7,3.316,2.592,4.95c0.156,0.291,0.326,0.576,0.479,0.865  c0.77,1.397,1.559,2.782,2.365,4.158c0.301,0.517,0.607,1.033,0.916,1.545c0.799,1.347,1.62,2.678,2.455,4.005  c0.192,0.298,0.375,0.604,0.563,0.903c1.006,1.572,2.035,3.125,3.089,4.663c0.309,0.455,0.627,0.905,0.941,1.358  c0.831,1.197,1.675,2.382,2.532,3.557c0.303,0.417,0.602,0.835,0.911,1.246c1.109,1.499,2.243,2.982,3.396,4.444  c0.259,0.326,0.52,0.646,0.783,0.972c0.949,1.188,1.917,2.367,2.897,3.533c0.358,0.429,0.718,0.854,1.08,1.277  c1.181,1.382,2.374,2.748,3.594,4.095c0.059,0.064,0.115,0.13,0.172,0.194c1.269,1.4,2.57,2.769,3.879,4.126  c0.38,0.393,0.762,0.781,1.145,1.17c1.073,1.093,2.155,2.172,3.254,3.239c0.298,0.287,0.587,0.576,0.881,0.861  c1.36,1.3,2.738,2.58,4.137,3.84c0.34,0.311,0.688,0.614,1.035,0.921c1.13,1.002,2.27,1.991,3.42,2.967  c0.387,0.333,0.783,0.665,1.174,0.996c1.456,1.212,2.923,2.409,4.415,3.577c0.185,0.148,0.377,0.287,0.561,0.433  c1.334,1.035,2.678,2.051,4.038,3.051c0.431,0.318,0.867,0.634,1.298,0.947c1.353,0.978,2.715,1.94,4.093,2.879  c0.214,0.15,0.429,0.301,0.642,0.446c1.576,1.069,3.171,2.109,4.782,3.127c0.419,0.267,0.839,0.526,1.263,0.787  c1.3,0.812,2.616,1.61,3.935,2.391c0.393,0.232,0.789,0.47,1.183,0.697c1.652,0.958,3.312,1.892,4.994,2.801  c0.324,0.172,0.651,0.338,0.968,0.512c1.412,0.749,2.835,1.484,4.263,2.199c0.468,0.234,0.934,0.468,1.397,0.695  c3.47,1.698,6.997,3.298,10.585,4.785c0.484,0.203,0.968,0.4,1.459,0.596c1.484,0.604,2.978,1.187,4.48,1.751  c0.353,0.133,0.702,0.274,1.06,0.404c1.814,0.671,3.645,1.309,5.484,1.925c0.427,0.143,0.861,0.28,1.294,0.419  c1.488,0.486,2.986,0.956,4.495,1.406c0.488,0.145,0.972,0.292,1.462,0.433c1.875,0.545,3.758,1.067,5.659,1.551  c0.236,0.059,0.473,0.113,0.707,0.172c0.406,0.103,0.819,0.192,1.227,0.291V246.023H151.76z"/>
<g style="opacity:0.1;">
	<path style="fill:#231F20;" d="M151.647,431.127c-0.49-0.196-0.974-0.393-1.459-0.596c-3.588-1.488-7.115-3.087-10.585-4.785   c-0.463-0.227-0.93-0.461-1.397-0.695c-1.429-0.715-2.852-1.45-4.263-2.199c-0.318-0.172-0.644-0.338-0.968-0.512   c-1.682-0.909-3.342-1.843-4.994-2.801c-0.393-0.227-0.789-0.465-1.183-0.697c-1.32-0.781-2.634-1.578-3.935-2.391   c-0.423-0.261-0.844-0.519-1.263-0.787c-1.61-1.018-3.205-2.058-4.782-3.127c-0.212-0.145-0.427-0.296-0.642-0.446   c-1.378-0.938-2.74-1.901-4.093-2.879c-0.431-0.314-0.867-0.629-1.298-0.947c-1.36-1-2.704-2.016-4.038-3.051   c-0.185-0.148-0.377-0.287-0.561-0.433c-1.492-1.168-2.959-2.365-4.415-3.577c-0.391-0.331-0.787-0.663-1.174-0.996   c-1.149-0.976-2.29-1.965-3.42-2.967c-0.347-0.307-0.695-0.61-1.035-0.921c-1.4-1.261-2.778-2.539-4.137-3.84   c-0.294-0.284-0.583-0.574-0.881-0.861c-1.099-1.067-2.18-2.146-3.254-3.239c-0.382-0.389-0.764-0.777-1.145-1.17   c-1.309-1.358-2.61-2.727-3.879-4.126c-0.057-0.064-0.113-0.13-0.172-0.194c-1.221-1.347-2.413-2.713-3.594-4.095   c-0.362-0.423-0.722-0.848-1.08-1.277c-0.98-1.166-1.949-2.344-2.897-3.533c-0.263-0.326-0.524-0.646-0.783-0.972   c-1.153-1.462-2.287-2.946-3.396-4.444c-0.309-0.41-0.608-0.83-0.911-1.245c-0.857-1.174-1.7-2.358-2.532-3.557   c-0.314-0.453-0.631-0.903-0.941-1.358c-1.055-1.539-2.084-3.091-3.089-4.663c-0.19-0.298-0.373-0.604-0.565-0.903   c-0.835-1.325-1.656-2.658-2.455-4.005c-0.309-0.512-0.614-1.027-0.916-1.545c-0.806-1.376-1.595-2.761-2.365-4.158   c-0.154-0.288-0.324-0.574-0.479-0.865c-0.892-1.633-1.749-3.285-2.592-4.95c-0.101-0.206-0.217-0.406-0.322-0.61l-0.044-0.13   c-6.018-12.018-10.796-24.763-14.152-38.078l-0.029-0.08c-0.101-0.4-0.187-0.806-0.282-1.206c-0.289-1.177-0.568-2.351-0.833-3.535   c-0.139-0.623-0.274-1.248-0.408-1.875c-0.245-1.146-0.479-2.298-0.7-3.455c-0.12-0.604-0.238-1.21-0.353-1.821   c-0.24-1.32-0.465-2.645-0.682-3.975c-0.068-0.431-0.143-0.859-0.214-1.288c-0.265-1.757-0.516-3.523-0.739-5.297   c-0.051-0.404-0.093-0.812-0.139-1.216c-0.166-1.378-0.316-2.759-0.453-4.146c-0.061-0.612-0.11-1.229-0.164-1.843   c-0.106-1.206-0.198-2.413-0.282-3.626c-0.042-0.649-0.082-1.292-0.117-1.943c-0.073-1.254-0.13-2.51-0.181-3.771   c-0.019-0.574-0.046-1.146-0.064-1.724c-0.051-1.821-0.084-3.647-0.084-5.482c0-99.893,77.631-181.641,175.858-188.234   c-4.274-0.29-8.586-0.443-12.933-0.443C92.553,67.545,8.081,152.02,8.081,256.223c0,1.835,0.033,3.661,0.084,5.482   c0.017,0.576,0.044,1.149,0.064,1.724c0.051,1.261,0.108,2.517,0.181,3.771c0.036,0.651,0.075,1.294,0.117,1.943   c0.084,1.212,0.177,2.42,0.282,3.626c0.055,0.614,0.103,1.232,0.164,1.843c0.137,1.387,0.287,2.767,0.453,4.146   c0.046,0.404,0.088,0.812,0.139,1.216c0.223,1.773,0.473,3.539,0.739,5.297c0.071,0.429,0.148,0.857,0.214,1.288   c0.217,1.33,0.442,2.656,0.682,3.975c0.115,0.61,0.234,1.216,0.353,1.821c0.221,1.157,0.457,2.309,0.7,3.455   c0.135,0.627,0.269,1.252,0.408,1.875c0.265,1.185,0.545,2.358,0.834,3.535c0.095,0.4,0.181,0.806,0.282,1.206l0.029,0.08   c3.356,13.314,8.133,26.061,14.152,38.078l0.044,0.13c0.106,0.204,0.221,0.404,0.322,0.61c0.844,1.665,1.7,3.316,2.592,4.95   c0.156,0.291,0.326,0.576,0.479,0.865c0.77,1.397,1.559,2.782,2.365,4.158c0.301,0.517,0.607,1.033,0.916,1.545   c0.799,1.347,1.62,2.678,2.455,4.005c0.192,0.298,0.375,0.604,0.563,0.903c1.006,1.572,2.035,3.125,3.089,4.663   c0.309,0.455,0.627,0.905,0.941,1.358c0.831,1.197,1.675,2.382,2.532,3.557c0.303,0.417,0.602,0.835,0.911,1.246   c1.109,1.499,2.243,2.982,3.396,4.444c0.259,0.326,0.52,0.646,0.783,0.972c0.949,1.188,1.917,2.367,2.897,3.533   c0.358,0.429,0.718,0.854,1.08,1.277c1.181,1.382,2.374,2.748,3.594,4.095c0.059,0.064,0.115,0.13,0.172,0.194   c1.269,1.4,2.57,2.769,3.879,4.126c0.38,0.393,0.762,0.781,1.145,1.17c1.073,1.093,2.155,2.172,3.254,3.239   c0.298,0.287,0.587,0.576,0.881,0.861c1.36,1.3,2.738,2.58,4.137,3.84c0.34,0.311,0.688,0.614,1.035,0.921   c1.13,1.002,2.27,1.991,3.42,2.967c0.387,0.333,0.783,0.665,1.174,0.996c1.456,1.212,2.923,2.409,4.415,3.577   c0.185,0.148,0.377,0.287,0.561,0.433c1.334,1.035,2.678,2.051,4.038,3.051c0.431,0.318,0.867,0.634,1.298,0.947   c1.353,0.978,2.715,1.94,4.093,2.879c0.214,0.15,0.429,0.301,0.642,0.446c1.576,1.069,3.171,2.109,4.782,3.127   c0.419,0.267,0.839,0.526,1.263,0.787c1.3,0.812,2.616,1.61,3.935,2.391c0.393,0.232,0.789,0.47,1.183,0.697   c1.652,0.958,3.312,1.892,4.994,2.801c0.324,0.172,0.651,0.338,0.968,0.512c1.412,0.749,2.835,1.484,4.263,2.199   c0.468,0.234,0.934,0.468,1.397,0.695c3.47,1.698,6.997,3.298,10.585,4.785c0.484,0.203,0.968,0.4,1.459,0.596   c1.484,0.604,2.978,1.187,4.48,1.751c0.353,0.133,0.702,0.274,1.06,0.404c1.814,0.671,3.645,1.309,5.484,1.925   c0.427,0.143,0.861,0.28,1.294,0.419c1.488,0.486,2.986,0.956,4.495,1.406c0.488,0.145,0.972,0.292,1.462,0.433   c1.875,0.545,3.758,1.067,5.659,1.551c0.236,0.059,0.473,0.113,0.707,0.172c0.406,0.103,0.819,0.192,1.227,0.291v-8.308   C151.722,431.156,151.685,431.141,151.647,431.127z"/>
</g>
<g>
	<path style="fill:#6AC6D8;" d="M307.589,254.713h-25.755v7.763c9.878,0,18.398-1.124,25.755-2.994V254.713z"/>
	<rect x="244.176" y="246.02" style="fill:#6AC6D8;" width="25.755" height="8.695"/>
</g>
<g>
	<path style="fill:#231F20;" d="M485.192,254.396l-79.774-2.322l6.305-40.932c0.776-3.727,5.03-27.09-6.731-41.676   c-3.994-4.955-11.556-10.859-24.893-10.859h-0.431c-3.824,0-7.391,0.903-10.607,2.598c-5.563-10.071-11.975-19.603-19.161-28.504   c-0.088-0.11-0.176-0.221-0.264-0.33c-1.122-1.383-2.264-2.747-3.422-4.1c-0.04-0.046-0.08-0.093-0.12-0.139   c-11.883-13.843-25.68-26.03-41.058-36.185c-0.238-0.157-0.475-0.318-0.715-0.475c-0.562-0.367-1.112-0.753-1.679-1.115   c-5.486-3.509-11.128-6.724-16.896-9.654c-0.118-0.06-0.236-0.125-0.354-0.185c-0.081-0.041-0.162-0.078-0.242-0.119   c-1.508-0.76-3.024-1.5-4.55-2.218c-0.384-0.181-0.769-0.358-1.154-0.537c-1.124-0.52-2.252-1.031-3.384-1.53   c-1.002-0.443-2.007-0.872-3.014-1.297c-0.594-0.25-1.186-0.5-1.782-0.743c-18.949-7.787-38.81-12.479-59.34-14.023   c-0.666-0.051-1.333-0.099-2-0.143c-0.774-0.051-1.546-0.102-2.321-0.144c-1.476-0.081-2.955-0.142-4.437-0.191   c-0.447-0.014-0.894-0.025-1.341-0.036c-1.687-0.043-3.376-0.072-5.067-0.072c-1.805,0-3.604,0.028-5.397,0.076   c-0.869,0.023-1.735,0.066-2.601,0.099c-0.866,0.034-1.735,0.066-2.599,0.111c-1.201,0.062-2.397,0.144-3.594,0.228   c-0.458,0.032-0.916,0.062-1.373,0.099c-1.48,0.114-2.956,0.248-4.43,0.394c-0.059,0.006-0.12,0.012-0.179,0.018   c-23.89,2.407-46.845,9.1-68.458,20.025c-26.345,13.318-49.775,32.789-67.756,56.308c-0.225,0.295-0.421,0.608-0.602,0.927   C14.821,170.731,0,211.776,0,256.223c0,1.723,0.028,3.589,0.087,5.718c0.011,0.349,0.025,0.696,0.038,1.043l0.028,0.768   c0.053,1.311,0.111,2.618,0.187,3.892c0.037,0.678,0.079,1.348,0.124,2.058c0.088,1.26,0.184,2.516,0.294,3.783l0.051,0.585   c0.039,0.448,0.078,0.896,0.121,1.335c0.143,1.446,0.298,2.884,0.467,4.273l0.043,0.389c0.033,0.303,0.068,0.607,0.107,0.915   c0.232,1.84,0.491,3.672,0.766,5.495c0.006,0.041,0.013,0.082,0.019,0.123l0.209,1.258c0.225,1.379,0.459,2.754,0.719,4.181   c0.12,0.634,0.242,1.263,0.354,1.829c0.232,1.213,0.478,2.42,0.738,3.637c0.139,0.648,0.279,1.293,0.423,1.943   c0.278,1.239,0.569,2.465,0.857,3.633l0.088,0.386c0.071,0.312,0.143,0.626,0.222,0.936c0.026,0.103,0.058,0.215,0.093,0.332   c3.413,13.461,8.293,26.608,14.509,39.087c0.084,0.203,0.177,0.4,0.277,0.595l0.247,0.462c0.017,0.032,0.032,0.066,0.05,0.099   c1.019,2.01,1.88,3.654,2.678,5.115c0.103,0.193,0.211,0.385,0.32,0.576l0.15,0.268c0.018,0.034,0.037,0.069,0.055,0.101   c0.804,1.459,1.628,2.904,2.455,4.319c0.325,0.559,0.655,1.114,0.954,1.609c0.836,1.408,1.694,2.801,2.601,4.24l0.561,0.897   c1.043,1.63,2.129,3.27,3.215,4.855c0.224,0.33,0.453,0.656,0.68,0.984l0.303,0.434c0.867,1.25,1.748,2.486,2.634,3.701l0.22,0.303   c0.255,0.353,0.512,0.706,0.732,0.998c0.818,1.105,1.668,2.217,2.529,3.329c0.011,0.014,0.019,0.03,0.03,0.044   c0.057,0.074,0.117,0.145,0.175,0.22c0.277,0.356,0.548,0.712,0.829,1.067l0.797,0.99c0.061,0.077,0.124,0.15,0.185,0.226   c0.817,1.018,1.644,2.026,2.48,3.025c0.113,0.136,0.226,0.279,0.339,0.414c0.058,0.07,0.116,0.138,0.176,0.208   c0.163,0.193,0.325,0.386,0.489,0.578c0.159,0.189,0.319,0.38,0.478,0.566c1.335,1.563,2.562,2.962,3.75,4.274   c0.008,0.008,0.014,0.016,0.022,0.023c0.031,0.036,0.124,0.14,0.154,0.172c1.16,1.28,2.408,2.608,4.058,4.318   c0.396,0.409,0.793,0.812,1.188,1.214c1.117,1.137,2.243,2.26,3.428,3.411l0.885,0.864c1.411,1.35,2.863,2.697,4.273,3.967   c0.296,0.272,0.599,0.538,0.901,0.805l0.225,0.198c1.172,1.04,2.355,2.065,3.515,3.05c0.338,0.291,0.684,0.582,1.027,0.872   l0.243,0.205c1.735,1.444,3.198,2.629,4.553,3.69c0.14,0.111,0.282,0.22,0.424,0.328l0.215,0.166   c1.389,1.078,2.789,2.137,4.199,3.174l1.355,0.988c1.523,1.101,2.924,2.086,4.212,2.963l0.723,0.502   c1.581,1.071,3.214,2.14,4.969,3.252c0.422,0.269,0.846,0.53,1.271,0.793l0.059,0.036c1.355,0.846,2.725,1.678,4.118,2.502   l0.395,0.234c0.281,0.166,0.561,0.334,0.832,0.489c1.814,1.052,3.516,2.005,5.247,2.941l0.979,0.516   c1.467,0.78,2.947,1.543,4.436,2.288c0.485,0.242,0.97,0.485,1.459,0.725c3.666,1.795,7.382,3.475,11.024,4.984   c0.523,0.219,1.046,0.432,1.523,0.623c1.551,0.632,3.116,1.241,4.69,1.833l0.366,0.14c0.253,0.098,0.507,0.196,0.727,0.277   c1.762,0.652,3.632,1.308,5.723,2.008c0.375,0.126,0.753,0.247,1.132,0.368l0.219,0.069c0.431,0.141,0.872,0.27,1.306,0.408   c0.678,0.217,1.355,0.428,2.035,0.637c0.456,0.139,0.902,0.289,1.361,0.426l0.412,0.123c0.373,0.111,0.744,0.223,1.099,0.325   c0.646,0.187,1.269,0.364,1.882,0.537c0.625,3.841,3.948,6.777,7.966,6.777h92.415c4.464,0,8.081-3.617,8.081-8.081v-0.608h29.578   c4.464,0,8.081-3.617,8.081-8.081v-3.782h18.987c7.349,3.548,33.922,14.331,85.418,14.331c19.632,0,40.941-1.577,63.337-4.688   c0.112-0.016,0.224-0.033,0.335-0.054c12.803-2.329,22.095-13.467,22.095-26.481v-1.435c0-5.054-1.4-9.788-3.831-13.834   c8.592-4.505,14.469-13.514,14.469-23.869v-6.407c0-5.054-1.4-9.787-3.831-13.833c8.594-4.505,14.469-13.514,14.469-23.87v-6.407   c0-5.054-1.4-9.788-3.831-13.834c8.594-4.506,14.469-13.514,14.469-23.869v-6.407C512,266.52,499.986,254.466,485.192,254.396z    M354.937,179.852c-0.249,0.769-0.482,1.548-0.69,2.338l-9.928,36.54c-0.022,0.075-0.04,0.152-0.059,0.228   c-0.002,0.01-0.013,0.052-0.029,0.11c-0.001,0.005-0.002,0.009-0.004,0.015c-0.017,0.064-0.044,0.156-0.078,0.267   c-0.003,0.012-0.006,0.02-0.01,0.032c-0.033,0.112-0.077,0.25-0.127,0.402c-0.008,0.023-0.014,0.044-0.022,0.067   c-0.051,0.155-0.111,0.332-0.179,0.523c-0.011,0.032-0.023,0.064-0.034,0.097c-0.07,0.196-0.15,0.41-0.237,0.64   c-0.015,0.04-0.031,0.081-0.046,0.121c-0.092,0.235-0.192,0.485-0.302,0.75c-0.018,0.045-0.038,0.09-0.057,0.137   c-0.114,0.273-0.239,0.559-0.375,0.86c-0.021,0.045-0.042,0.092-0.063,0.137c-0.141,0.31-0.293,0.634-0.457,0.97   c-0.019,0.041-0.041,0.083-0.061,0.124c-0.172,0.35-0.356,0.711-0.554,1.086c-0.014,0.027-0.03,0.055-0.044,0.083   c-0.197,0.371-0.407,0.753-0.631,1.145c-0.018,0.032-0.035,0.062-0.053,0.095c-0.225,0.393-0.469,0.797-0.722,1.209   c-0.035,0.057-0.068,0.112-0.103,0.169c-0.249,0.4-0.515,0.809-0.791,1.224c-0.047,0.071-0.094,0.142-0.142,0.213   c-0.276,0.409-0.568,0.825-0.873,1.245c-0.059,0.082-0.117,0.163-0.178,0.245c-0.306,0.418-0.628,0.84-0.963,1.266   c-0.068,0.086-0.137,0.173-0.206,0.26c-0.34,0.427-0.695,0.858-1.066,1.291c-0.074,0.087-0.15,0.175-0.226,0.262   c-0.378,0.436-0.771,0.875-1.182,1.316c-0.077,0.082-0.155,0.165-0.234,0.247c-0.423,0.448-0.861,0.896-1.318,1.346   c-0.071,0.07-0.145,0.14-0.219,0.21c-0.476,0.461-0.966,0.923-1.48,1.382c-0.057,0.051-0.116,0.101-0.173,0.152   c-0.526,0.467-1.069,0.931-1.634,1.392c-0.039,0.032-0.079,0.064-0.117,0.096c-0.569,0.461-1.163,0.919-1.773,1.373   c-0.068,0.051-0.133,0.101-0.201,0.152c-0.604,0.444-1.234,0.882-1.879,1.317c-0.098,0.066-0.194,0.133-0.293,0.198   c-0.638,0.422-1.299,0.838-1.978,1.248c-0.118,0.071-0.235,0.143-0.354,0.214c-0.678,0.403-1.378,0.797-2.097,1.184   c-0.135,0.073-0.27,0.145-0.406,0.218c-0.723,0.382-1.469,0.756-2.235,1.122c-0.143,0.069-0.289,0.137-0.433,0.205   c-0.779,0.364-1.578,0.719-2.402,1.062c-0.143,0.059-0.289,0.119-0.433,0.178c-0.844,0.345-1.707,0.68-2.597,1.001   c-0.134,0.048-0.269,0.095-0.404,0.142c-0.92,0.325-1.861,0.64-2.831,0.937c-0.103,0.031-0.211,0.061-0.315,0.094   c-1.014,0.306-2.052,0.599-3.122,0.872c-0.053,0.013-0.108,0.026-0.159,0.039c-0.608,0.153-1.246,0.288-1.871,0.43   c-0.31-28.572-3.866-56.153-10.327-81.222c18.466-4.875,35.664-11.187,51.111-18.826c4.863,6.845,9.274,14.064,13.171,21.628   C356.483,175.598,355.64,177.646,354.937,179.852z M244.175,237.942H204.84v-55.193c25.259-0.487,49.739-3.254,72.611-8.116   c5.912,22.827,9.283,47.962,9.823,74.105c-0.053-0.048-0.112-0.092-0.166-0.138c-0.078-0.067-0.155-0.134-0.235-0.197   c-0.04-0.032-0.079-0.067-0.12-0.098c-0.078-0.059-0.158-0.113-0.238-0.169c-0.084-0.06-0.168-0.122-0.255-0.179   c-0.038-0.025-0.074-0.051-0.112-0.075c-0.087-0.055-0.18-0.105-0.27-0.156c-0.091-0.053-0.18-0.107-0.274-0.156   c-0.033-0.018-0.066-0.038-0.1-0.055c-0.099-0.051-0.204-0.094-0.305-0.14c-0.096-0.044-0.191-0.09-0.288-0.131   c-0.029-0.012-0.057-0.025-0.086-0.037c-0.113-0.045-0.232-0.082-0.348-0.122c-0.098-0.033-0.194-0.071-0.293-0.101   c-0.023-0.008-0.045-0.015-0.068-0.022c-0.13-0.039-0.265-0.066-0.399-0.098c-0.097-0.024-0.193-0.052-0.291-0.071   c-0.016-0.003-0.031-0.008-0.047-0.011c-0.157-0.03-0.319-0.048-0.479-0.07c-0.086-0.012-0.17-0.029-0.259-0.038   c-0.009-0.001-0.016-0.002-0.025-0.003c-0.258-0.025-0.519-0.038-0.783-0.038h-29.578v-0.61   C252.255,241.559,248.637,237.942,244.175,237.942z M151.76,237.942c-4.463,0-8.081,3.617-8.081,8.081v2.119h-37.414   c0.579-25.928,3.939-50.854,9.807-73.507c22.87,4.862,47.35,7.628,72.607,8.115v55.193H151.76V237.942z M69.11,383.942   c-0.106-0.106-0.211-0.209-0.317-0.315c-2.932-2.939-5.769-5.981-8.499-9.125c13.627-6.393,28.767-11.759,45.023-15.995   c9.228,28.306,22.311,52.201,38.362,68.966v1.406C115.622,420.24,89.932,404.717,69.11,383.942z M16.351,248.142   c1.578-35.658,13.539-68.662,32.936-96.051c15.437,7.631,32.623,13.938,51.076,18.809c-6.161,23.903-9.677,50.09-10.26,77.242   H16.351z M145.495,83.049c-9.408,9.39-18.056,21.461-25.667,36.014c-5.804,11.1-10.815,23.293-14.992,36.321   c-16.334-4.292-31.593-9.757-45.398-16.319C81.842,112.845,111.604,93.1,145.495,83.049z M334.078,139.066   c-13.803,6.561-29.062,12.025-45.393,16.318c-4.176-13.028-9.188-25.221-14.992-36.32c-7.556-14.448-16.132-26.454-25.462-35.815   C281.475,93.246,311.414,112.678,334.078,139.066z M188.679,166.588c-23.71-0.473-46.65-3.028-68.07-7.497   c3.812-11.67,8.337-22.586,13.541-32.538c15.168-29.006,34.286-46.492,54.528-50.182v90.217H188.679z M272.904,159.092   c-21.418,4.468-44.356,7.023-68.064,7.496V76.37c20.244,3.69,39.361,21.176,54.53,50.183   C264.575,136.503,269.093,147.425,272.904,159.092z M143.679,334.616c-9.313,1.242-18.414,2.82-27.272,4.694   c-6.015-22.86-9.543-48.338-10.137-75.007h37.409L143.679,334.616L143.679,334.616z M143.679,350.923v51.007   c-9.047-13.063-16.686-29.046-22.668-47.092C128.389,353.308,135.955,351.999,143.679,350.923z M38.497,343.278   c-0.101-0.186-0.205-0.374-0.311-0.561l-0.178-0.321c-0.742-1.36-1.525-2.852-2.46-4.694c-0.065-0.13-0.13-0.259-0.199-0.386   c-0.053-0.118-0.109-0.237-0.166-0.353c-5.82-11.623-10.377-23.882-13.541-36.434c-0.024-0.092-0.051-0.192-0.081-0.293   c-0.028-0.117-0.055-0.236-0.081-0.353l-0.137-0.587c-0.276-1.124-0.543-2.245-0.794-3.371c-0.135-0.602-0.264-1.206-0.391-1.798   c-0.233-1.091-0.457-2.186-0.679-3.348c-0.115-0.581-0.229-1.165-0.33-1.692c-0.232-1.271-0.448-2.548-0.648-3.775   c-0.051-0.325-0.106-0.649-0.161-0.971l-0.059-0.346c-0.251-1.669-0.489-3.344-0.699-5.024l-0.135-1.182   c-0.159-1.321-0.303-2.643-0.434-3.978c-0.037-0.372-0.069-0.744-0.1-1.118l-0.055-0.627c-0.101-1.158-0.191-2.318-0.268-3.447   c-0.041-0.622-0.079-1.239-0.114-1.892c-0.047-0.815-0.086-1.624-0.122-2.422h73.752c0.604,27.834,4.319,54.547,10.668,78.695   c-18.394,4.825-35.472,11.042-50.736,18.509c-0.56-0.779-1.123-1.557-1.669-2.344l-0.324-0.467   c-0.194-0.278-0.387-0.556-0.593-0.857c-1.005-1.465-1.998-2.963-2.931-4.422l-0.207-0.334c-0.124-0.2-0.25-0.403-0.344-0.551   c-0.797-1.266-1.582-2.537-2.379-3.881c-0.286-0.47-0.566-0.946-0.857-1.445C39.973,345.91,39.227,344.6,38.497,343.278z    M236.094,436.377h-76.253v-12.195v-82.429v-87.65h76.253v0.61v181.055V436.377z M273.753,427.688h-21.498V262.794h21.498v161.112   V427.688z M495.839,287.735c0,5.939-4.833,10.77-10.774,10.77h-10.633h-57.737c-4.463,0-8.081,3.617-8.081,8.081   c0,4.464,3.618,8.081,8.081,8.081h57.737c5.939,0,10.77,4.832,10.77,10.772v6.407c0,5.939-4.831,10.77-10.77,10.77h-10.64   c-0.25,0-0.497,0.015-0.741,0.038l-46.379,0.152c-4.464,0.015-8.069,3.645-8.055,8.107c0.015,4.454,3.63,8.055,8.08,8.055   c0.01,0,0.018,0,0.027,0l47.718-0.156c5.636,0.339,10.121,5.02,10.121,10.74v6.407c0,5.939-4.832,10.77-10.772,10.77h-6.016h-4.621   h-36.46c-4.463,0-8.081,3.618-8.081,8.081c0,4.464,3.618,8.081,8.081,8.081h36.46c5.94,0,10.772,4.832,10.772,10.772v1.435   c0,5.151-3.643,9.566-8.683,10.553c-21.593,2.991-42.088,4.508-60.924,4.508c-55.329,0-79.213-13.127-79.403-13.234   c-1.234-0.718-2.636-1.097-4.064-1.097h-20.939V270.309c0.199-0.013,0.391-0.03,0.589-0.043c0.407-0.027,0.81-0.058,1.213-0.089   c0.3-0.024,0.606-0.042,0.903-0.067c0.279-0.024,0.553-0.053,0.831-0.079c0.348-0.032,0.694-0.067,1.039-0.102   c0.359-0.037,0.718-0.072,1.072-0.112c0.254-0.028,0.515-0.048,0.767-0.078c0.07-0.009,0.138-0.024,0.208-0.034   c0.217-0.026,0.43-0.055,0.644-0.082c0.525-0.066,1.042-0.137,1.558-0.21c0.353-0.05,0.708-0.099,1.057-0.152   c0.529-0.08,1.05-0.166,1.571-0.252c0.323-0.054,0.65-0.106,0.969-0.162c0.555-0.098,1.1-0.203,1.644-0.307   c0.273-0.053,0.549-0.102,0.82-0.157c0.655-0.133,1.299-0.273,1.939-0.415c0.15-0.033,0.303-0.064,0.451-0.098   c0.801-0.182,1.588-0.373,2.364-0.571c0.044-0.011,0.087-0.024,0.131-0.036c0.719-0.184,1.428-0.375,2.126-0.572   c0.207-0.058,0.407-0.12,0.612-0.18c0.529-0.154,1.057-0.308,1.574-0.469c0.25-0.078,0.493-0.158,0.741-0.237   c0.463-0.148,0.924-0.297,1.378-0.45c0.261-0.088,0.517-0.179,0.775-0.268c0.433-0.151,0.863-0.304,1.288-0.459   c0.256-0.095,0.511-0.191,0.764-0.287c0.414-0.156,0.823-0.315,1.228-0.475c0.252-0.1,0.502-0.2,0.75-0.303   c0.4-0.163,0.794-0.329,1.185-0.496c0.24-0.102,0.479-0.205,0.716-0.309c0.391-0.171,0.777-0.346,1.159-0.52   c0.226-0.103,0.454-0.207,0.677-0.311c0.389-0.183,0.772-0.368,1.153-0.555c0.205-0.1,0.413-0.2,0.614-0.302   c0.402-0.201,0.796-0.406,1.188-0.611c0.171-0.089,0.346-0.178,0.516-0.268c0.455-0.242,0.901-0.488,1.342-0.736   c0.098-0.055,0.2-0.109,0.297-0.165c1.086-0.614,2.13-1.241,3.134-1.878c0.125-0.079,0.245-0.159,0.367-0.238   c0.367-0.236,0.733-0.473,1.089-0.711c0.164-0.11,0.322-0.22,0.484-0.33c0.309-0.21,0.617-0.421,0.918-0.634   c0.172-0.122,0.342-0.245,0.512-0.366c0.28-0.201,0.56-0.403,0.833-0.605c0.175-0.129,0.345-0.259,0.516-0.388   c0.261-0.197,0.519-0.394,0.774-0.591c0.171-0.134,0.34-0.266,0.509-0.4c0.247-0.195,0.489-0.391,0.729-0.587   c0.164-0.134,0.326-0.267,0.488-0.401c0.237-0.197,0.469-0.393,0.698-0.59c0.155-0.133,0.311-0.266,0.464-0.399   c0.227-0.198,0.449-0.395,0.67-0.593c0.147-0.13,0.294-0.262,0.437-0.392c0.224-0.204,0.442-0.407,0.658-0.611   c0.131-0.123,0.265-0.246,0.394-0.368c0.231-0.219,0.454-0.437,0.676-0.655c0.108-0.106,0.22-0.212,0.325-0.318   c0.323-0.321,0.64-0.642,0.947-0.96c0.682-0.707,1.333-1.413,1.956-2.117c0.441-0.498,0.849-0.992,1.261-1.488   c0.17-0.205,0.356-0.412,0.521-0.615c5.567-6.855,8.443-13.235,9.805-16.986c0.023-0.061,0.051-0.134,0.072-0.194   c0.079-0.219,0.14-0.406,0.208-0.605c0.047-0.14,0.103-0.296,0.147-0.427c0.023-0.068,0.037-0.117,0.057-0.182   c0.272-0.839,0.441-1.459,0.521-1.778l6.477-23.843l3.441-12.665c0.189-0.713,0.402-1.405,0.635-2.077   c0.025-0.072,0.056-0.152,0.082-0.225c0.224-0.63,0.463-1.244,0.723-1.831c0.011-0.026,0.023-0.051,0.034-0.076   c0.568-1.27,1.214-2.428,1.926-3.438c0.052-0.072,0.088-0.152,0.137-0.225c1.528-2.088,3.582-3.733,6.273-3.733h0.431   c5.646,0,9.669,1.577,12.294,4.82c6.18,7.631,4.605,23.09,3.48,28.387c-0.034,0.159-0.065,0.321-0.091,0.483l-6.678,43.361h-8.947   c-4.464,0-8.081,3.617-8.081,8.081c0,4.464,3.617,8.081,8.081,8.081h15.879l88.793,2.575c0.078,0.002,0.156,0.003,0.235,0.003   c5.941,0,10.774,4.831,10.774,10.77v6.406H495.839z"/>
	<path style="fill:#231F20;" d="M194.481,378.737c-12.002,0-21.767,9.766-21.767,21.767c0,12.002,9.765,21.767,21.767,21.767   c12.002,0,21.767-9.765,21.767-21.767C216.248,388.502,206.482,378.737,194.481,378.737z M194.481,406.11   c-3.091,0-5.606-2.515-5.606-5.606c0-3.091,2.515-5.606,5.606-5.606s5.606,2.515,5.606,5.606   C200.087,403.596,197.572,406.11,194.481,406.11z"/>
</g>
<g>
</g>
<g>
</g>
<g>
</g>
<g>
</g>
<g>
</g>
<g>
</g>
<g>
</g>
<g>
</g>
<g>
</g>
<g>
</g>
<g>
</g>
<g>
</g>
<g>
</g>
<g>
</g>
<g>
</g>
</svg>