<svg xmlns="http://www.w3.org/2000/svg" xmlns:xlink="http://www.w3.org/1999/xlink" version="1.1" id="Layer_1" x="0px" y="0px" viewBox="0 0 512 512" style="enable-background:new 0 0 512 512;" xml:space="preserve">
<path style="fill:#EAE8E8;" d="M90.026,503.975H63.131c-30.431,0-55.105-24.673-55.105-55.106V63.131  c0-30.433,24.673-55.106,55.105-55.106h385.738c30.431,0,55.106,24.673,55.106,55.106v385.739c0,30.433-24.675,55.106-55.106,55.106  H116.767"/>
<polygon style="fill:#F7DFB7;" points="219.285,380.071 201.463,443.21 264.6,425.386 "/>
<path style="fill:#F57555;" d="M446.336,221.954l-23.616-23.614c-5.994-5.994-15.709-5.994-21.7,0l-24.028,24.026l45.316,45.316  l24.028-24.027C452.324,237.663,452.324,227.946,446.336,221.954z"/>
<rect x="357.89" y="241.013" transform="matrix(-0.7071 -0.7071 0.7071 -0.7071 485.538 710.5736)" style="fill:#738191;" width="64.087" height="27.432"/>
<rect x="279.058" y="235.772" transform="matrix(0.7071 0.7071 -0.7071 0.7071 326.99 -122.2801)" style="fill:#F4B846;" width="64.084" height="195.6"/>
<polygon style="fill:#6AC6D8;" points="355.175,202.738 369.061,188.851 61.535,188.851 61.535,235.406 322.506,235.406 "/>
<path style="fill:#EAE8E8;" d="M448.868,8.025H63.131c-30.432,0-55.105,24.673-55.105,55.106v48.809h495.948V63.131  C503.974,32.697,479.299,8.025,448.868,8.025z"/>
<circle style="fill:#F57555;" cx="73.176" cy="62.187" r="16.049"/>
<circle style="fill:#F4B846;" cx="128.547" cy="62.187" r="16.049"/>
<circle style="fill:#62B07E;" cx="183.907" cy="62.187" r="16.049"/>
<polyline style="fill:#D8D4D4;" points="428.66,139.628 8.026,139.628 8.026,111.94 503.974,111.94 503.974,139.628   454.865,139.628 "/>
<g>
	<path style="fill:#231F20;" d="M448.868,0H63.131C28.321,0,0.001,28.32,0.001,63.131v48.809v27.689v309.241   c0,34.811,28.32,63.131,63.13,63.131h26.895c4.432,0,8.025-3.592,8.025-8.025c0-4.433-3.593-8.025-8.025-8.025H63.131   c-25.96,0-47.08-21.12-47.08-47.081V147.653H428.66c4.433,0,8.025-3.592,8.025-8.025s-3.592-8.025-8.025-8.025H16.051v-11.639   h479.899v11.639h-41.083c-4.433,0-8.025,3.592-8.025,8.025s3.592,8.025,8.025,8.025h41.083v301.216   c0,25.961-21.12,47.081-47.081,47.081H116.767c-4.432,0-8.025,3.592-8.025,8.025c0,4.433,3.593,8.025,8.025,8.025h332.101   c34.811,0,63.131-28.32,63.131-63.131V139.628V111.94V63.131C511.999,28.32,483.679,0,448.868,0z M16.051,103.915V63.131   c0-25.961,21.12-47.081,47.08-47.081h385.738c25.961,0,47.081,21.12,47.081,47.081v40.784H16.051z"/>
	<path style="fill:#231F20;" d="M73.173,38.115c-13.275,0-24.074,10.799-24.074,24.073s10.799,24.074,24.074,24.074   c13.274,0,24.073-10.8,24.073-24.074S86.448,38.115,73.173,38.115z M73.173,70.213c-4.425,0-8.025-3.599-8.025-8.025   c0-4.424,3.599-8.024,8.025-8.024c4.424,0,8.024,3.599,8.024,8.024C81.197,66.613,77.597,70.213,73.173,70.213z"/>
	<path style="fill:#231F20;" d="M128.542,38.115c-13.275,0-24.074,10.799-24.074,24.073s10.799,24.074,24.074,24.074   c13.273,0,24.072-10.8,24.072-24.074C152.614,48.914,141.816,38.115,128.542,38.115z M128.542,70.213   c-4.425,0-8.025-3.599-8.025-8.025c0-4.424,3.599-8.024,8.025-8.024c4.423,0,8.023,3.599,8.023,8.024   C136.564,66.613,132.966,70.213,128.542,70.213z"/>
	<path style="fill:#231F20;" d="M183.91,38.115c-13.275,0-24.074,10.799-24.074,24.073s10.799,24.074,24.074,24.074   c13.274,0,24.073-10.8,24.073-24.074C207.984,48.914,197.185,38.115,183.91,38.115z M183.91,70.213   c-4.425,0-8.025-3.599-8.025-8.025c0-4.424,3.599-8.024,8.025-8.024c4.424,0,8.024,3.599,8.024,8.024   C191.934,66.613,188.334,70.213,183.91,70.213z"/>
	<path style="fill:#231F20;" d="M450.855,54.163h-141.23c-4.433,0-8.025,3.592-8.025,8.025s3.592,8.025,8.025,8.025h141.23   c4.433,0,8.025-3.592,8.025-8.025S455.288,54.163,450.855,54.163z"/>
	<path style="fill:#231F20;" d="M452.009,216.28l-23.615-23.614c-4.415-4.414-10.284-6.845-16.526-6.845s-12.111,2.431-16.523,6.845   l-24.019,24.017c-0.003,0.003-0.007,0.006-0.011,0.01l-19.398,19.398L213.611,374.396c-0.211,0.211-0.406,0.434-0.591,0.666   c-0.048,0.061-0.092,0.125-0.138,0.186c-0.144,0.191-0.28,0.388-0.407,0.592c-0.051,0.082-0.101,0.165-0.149,0.249   c-0.125,0.217-0.239,0.441-0.341,0.669c-0.028,0.061-0.059,0.119-0.085,0.18c-0.124,0.291-0.229,0.591-0.318,0.895   c-0.005,0.02-0.015,0.039-0.021,0.059L193.74,441.03c-0.79,2.796-0.005,5.8,2.049,7.855c1.526,1.526,3.576,2.35,5.675,2.35   c0.728,0,1.461-0.1,2.18-0.302l63.138-17.824c0.01-0.003,0.019-0.007,0.029-0.011c0.311-0.089,0.618-0.199,0.919-0.326   c0.056-0.024,0.108-0.051,0.163-0.076c0.236-0.106,0.469-0.225,0.695-0.355c0.074-0.043,0.148-0.085,0.219-0.129   c0.216-0.133,0.426-0.278,0.631-0.433c0.052-0.04,0.108-0.076,0.159-0.118c0.233-0.186,0.46-0.384,0.676-0.599l138.309-138.307   c0.003-0.003,0.006-0.007,0.01-0.011l19.385-19.386l24.028-24.028C461.117,240.218,461.118,225.392,452.009,216.28z M264.6,414.037   l-33.967-33.966l126.959-126.958l18.921,18.92l15.047,15.047L264.6,414.037z M402.91,275.73l-16.983-16.982l-16.986-16.985   l8.048-8.048l33.966,33.967L402.91,275.73z M223.29,395.424l25.958,25.958l-36.166,10.21L223.29,395.424z M440.659,237.981   l-18.354,18.353l-33.966-33.967l18.355-18.352c1.381-1.382,3.22-2.144,5.173-2.144c1.955,0,3.794,0.762,5.178,2.145l23.614,23.613   C443.513,230.482,443.512,235.127,440.659,237.981z"/>
	<path style="fill:#231F20;" d="M368.216,276.458c-3.135-3.133-8.215-3.133-11.349,0L254.542,378.783   c-3.134,3.135-3.134,8.215,0,11.349c1.568,1.566,3.622,2.35,5.675,2.35s4.108-0.783,5.675-2.35l102.325-102.325   C371.35,284.673,371.35,279.593,368.216,276.458z"/>
	<path style="fill:#231F20;" d="M61.535,284.991H281.95c4.433,0,8.025-3.592,8.025-8.025c0-4.433-3.592-8.025-8.025-8.025H61.535   c-4.432,0-8.025,3.592-8.025,8.025C53.51,281.399,57.102,284.991,61.535,284.991z"/>
	<path style="fill:#231F20;" d="M61.535,326.552H239.14c4.432,0,8.025-3.592,8.025-8.025s-3.593-8.025-8.025-8.025H61.535   c-4.432,0-8.025,3.592-8.025,8.025C53.51,322.96,57.102,326.552,61.535,326.552z"/>
	<path style="fill:#231F20;" d="M61.535,368.113h135.887c4.432,0,8.025-3.592,8.025-8.025c0-4.433-3.593-8.025-8.025-8.025H61.535   c-4.432,0-8.025,3.592-8.025,8.025C53.51,364.521,57.102,368.113,61.535,368.113z"/>
	<path style="fill:#231F20;" d="M61.535,409.673h119.837c4.432,0,8.025-3.592,8.025-8.025c0-4.432-3.593-8.025-8.025-8.025H61.535   c-4.432,0-8.025,3.593-8.025,8.025C53.51,406.08,57.102,409.673,61.535,409.673z"/>
	<path style="fill:#231F20;" d="M61.535,451.235h111.277c4.432,0,8.025-3.592,8.025-8.025c0-4.433-3.593-8.025-8.025-8.025H61.535   c-4.432,0-8.025,3.592-8.025,8.025C53.51,447.642,57.102,451.235,61.535,451.235z"/>
	<path style="fill:#231F20;" d="M434.956,310.502h-23.487c-4.433,0-8.025,3.592-8.025,8.025s3.592,8.025,8.025,8.025h23.487   c4.433,0,8.025-3.592,8.025-8.025C442.981,314.095,439.389,310.502,434.956,310.502z"/>
	<path style="fill:#231F20;" d="M434.956,352.063h-63.756c-4.433,0-8.025,3.592-8.025,8.025c0,4.433,3.592,8.025,8.025,8.025h63.756   c4.433,0,8.025-3.592,8.025-8.025C442.981,355.656,439.389,352.063,434.956,352.063z"/>
	<path style="fill:#231F20;" d="M434.956,393.623H331.169c-4.433,0-8.025,3.593-8.025,8.025c0,4.433,3.592,8.025,8.025,8.025   h103.788c4.433,0,8.025-3.592,8.025-8.025C442.981,397.215,439.389,393.623,434.956,393.623z"/>
	<path style="fill:#231F20;" d="M434.956,435.185H289.44c-4.433,0-8.025,3.592-8.025,8.025c0,4.433,3.592,8.025,8.025,8.025h145.517   c4.433,0,8.025-3.592,8.025-8.025C442.981,438.777,439.389,435.185,434.956,435.185z"/>
	<path style="fill:#231F20;" d="M369.061,180.826H61.535c-4.432,0-8.025,3.593-8.025,8.025v46.556c0,4.433,3.593,8.025,8.025,8.025   h260.972c2.128,0,4.169-0.845,5.675-2.35l46.555-46.556c2.295-2.295,2.981-5.747,1.739-8.746   C375.234,182.781,372.306,180.826,369.061,180.826z M319.183,227.381H69.56v-30.506h280.128L319.183,227.381z"/>
</g>
<g style="opacity:0.1;">
	<path style="fill:#231F20;" d="M32.992,448.869V63.131c0-30.433,24.674-55.106,55.105-55.106H63.131   c-30.432,0-55.105,24.673-55.105,55.106v385.739c0,30.433,24.674,55.106,55.105,55.106h24.966   C57.665,503.975,32.992,479.303,32.992,448.869z"/>
</g>
<g>
</g>
<g>
</g>
<g>
</g>
<g>
</g>
<g>
</g>
<g>
</g>
<g>
</g>
<g>
</g>
<g>
</g>
<g>
</g>
<g>
</g>
<g>
</g>
<g>
</g>
<g>
</g>
<g>
</g>
</svg>