<?xml version="1.0" encoding="iso-8859-1"?>
<!-- Generator: Adobe Illustrator 19.0.0, SVG Export Plug-In . SVG Version: 6.00 Build 0)  -->
<svg xmlns="http://www.w3.org/2000/svg" xmlns:xlink="http://www.w3.org/1999/xlink" version="1.1" id="Layer_1" x="0px" y="0px" viewBox="0 0 512 512" style="enable-background:new 0 0 512 512;" xml:space="preserve">
<path style="fill:#F4B846;" d="M319.764,103.923c-32.561-20.499-73.061-32.647-116.955-32.647  C95.267,71.275,8.088,144.198,8.088,234.154c0,53.319,30.629,100.653,77.974,130.366l5.321,76.207l64.595-48.446  c15.004,3.098,30.685,4.753,46.832,4.753c34.102,0,66.151-7.342,94.027-20.225c-25.857-19.101-42.17-47.034-42.17-78.158  c0-57.572,55.797-104.244,124.623-104.244c4.234,0,8.419,0.179,12.544,0.524c-8.614-29.138-26.603-55.185-51.135-75.771"/>
<g style="opacity:0.1;">
	<path style="fill:#231F20;" d="M111.078,352.299c-47.344-29.714-77.974-77.047-77.974-130.366   c0-55.71,33.445-104.88,84.448-134.248C52.743,114.129,8.088,169.777,8.088,234.154c0,53.319,30.629,100.653,77.974,130.366   l5.321,76.207l24.583-18.438L111.078,352.299z"/>
</g>
<path style="fill:#6AC6D8;" d="M503.912,298.651c0-57.572-55.796-104.244-124.622-104.244s-124.623,46.672-124.623,104.244  c0,57.574,55.797,104.246,124.623,104.246c9.745,0,19.229-0.937,28.331-2.709l47.776,35.937l-1.281-54.107  C484.354,362.998,503.912,332.736,503.912,298.651z"/>
<g style="opacity:0.1;">
	<path style="fill:#231F20;" d="M280.124,298.651c0-53.978,49.045-98.373,111.894-103.707c-4.186-0.355-8.432-0.537-12.729-0.537   c-68.826,0-124.623,46.672-124.623,104.244c0,57.574,55.797,104.246,124.623,104.246c4.276,0,8.498-0.191,12.664-0.543   C329.138,396.995,280.124,352.611,280.124,298.651z"/>
</g>
<g>
	<path style="fill:#231F20;" d="M512,298.651c0-56.583-49.684-103.519-114.062-111.217c-9.437-28.085-27.337-53.739-52.04-74.468   c-3.423-2.873-8.523-2.424-11.394,0.996c-2.872,3.423-2.425,8.523,0.996,11.394c20.549,17.243,35.884,38.143,44.834,60.966   c-0.348-0.002-0.697-0.003-1.045-0.003c-73.176,0-132.711,50.391-132.711,112.331c0,0.921,0.015,1.841,0.041,2.759   c0.011,0.394,0.032,0.786,0.05,1.179c0.022,0.512,0.04,1.024,0.069,1.534c0.029,0.518,0.069,1.032,0.108,1.547   c0.028,0.375,0.053,0.751,0.084,1.125c0.051,0.598,0.112,1.194,0.174,1.789c0.029,0.28,0.057,0.561,0.088,0.841   c0.075,0.664,0.16,1.325,0.248,1.985c0.027,0.202,0.053,0.403,0.082,0.604c0.101,0.72,0.211,1.439,0.329,2.155   c0.022,0.132,0.043,0.264,0.066,0.396c0.129,0.772,0.268,1.542,0.417,2.309c0.013,0.066,0.026,0.133,0.039,0.198   c1.24,6.335,3.107,12.492,5.547,18.425c0.235,0.573,0.469,1.145,0.715,1.715c0.022,0.049,0.043,0.096,0.065,0.145   c5.925,13.678,14.968,26.331,26.726,37.195c-24.504,9.444-51.422,14.396-78.617,14.396c-15.251,0-30.458-1.543-45.197-4.586   c-2.272-0.473-4.633,0.059-6.488,1.45l-52.709,39.531l-4.285-61.386c-0.18-2.577-1.581-4.914-3.769-6.287   c-47.146-29.588-74.186-74.607-74.186-123.515c0-85.352,83.724-154.791,186.633-154.791c41.06,0,80.013,10.859,112.646,31.404   c3.78,2.38,8.774,1.244,11.153-2.535c2.38-3.781,1.244-8.774-2.535-11.153c-35.218-22.172-77.15-33.891-121.264-33.891   c-53.905,0-104.647,17.612-142.877,49.59C21.284,145.105,0,188.211,0,234.154c0,27.195,7.752,54.254,22.42,78.252   c13.421,21.958,32.679,41.502,55.856,56.724l5.037,72.158c0.206,2.955,2.011,5.56,4.706,6.793c1.074,0.491,2.22,0.732,3.361,0.732   c1.721,0,3.429-0.549,4.854-1.618l61.709-46.28c14.682,2.792,29.757,4.206,44.866,4.206c32.442,0,64.55-6.598,93.188-19.089   c22.79,15.594,51.772,24.95,83.292,24.95c8.852,0,17.679-0.742,26.299-2.205l44.948,33.81c1.43,1.075,3.141,1.624,4.863,1.624   c1.262,0,2.53-0.294,3.697-0.894c2.757-1.417,4.462-4.286,4.388-7.386l-1.174-49.606C493.952,364.898,512,333.174,512,298.651z    M449.811,375.172c-2.411,1.516-3.846,4.19-3.78,7.037l0.885,37.415l-34.434-25.902c-1.414-1.061-3.123-1.624-4.862-1.624   c-0.514,0-1.032,0.05-1.545,0.149c-8.728,1.698-17.741,2.56-26.787,2.56c-30.112,0-57.592-9.472-78.295-24.995   c-0.025-0.018-0.05-0.038-0.074-0.056c-2.669-2.005-5.225-4.112-7.658-6.31c-0.07-0.064-0.143-0.126-0.214-0.191   c-0.336-0.306-0.665-0.618-0.997-0.926c-0.345-0.322-0.692-0.643-1.032-0.968c-0.219-0.209-0.432-0.423-0.649-0.633   c-0.457-0.445-0.912-0.893-1.359-1.345c-0.123-0.125-0.245-0.25-0.367-0.375c-0.551-0.564-1.098-1.131-1.633-1.704   c-0.027-0.028-0.053-0.057-0.08-0.086c-14.897-15.999-23.449-35.576-24.131-55.924c-0.001-0.032-0.003-0.064-0.004-0.096   c-0.027-0.848-0.041-1.696-0.041-2.547c0-49.706,45.947-90.725,104.637-95.659c3.913-0.329,7.882-0.497,11.898-0.497   c3.942,0,7.936,0.167,11.869,0.496c0.004,0,0.009,0,0.013,0c58.697,4.927,104.652,45.949,104.652,95.66   C495.825,328.886,479.053,356.778,449.811,375.172z"/>
	<path style="fill:#231F20;" d="M432.479,258.615h-9.221c-4.467,0-8.088,3.62-8.088,8.088s3.621,8.088,8.088,8.088h9.221   c4.468,0,8.088-3.62,8.088-8.088S436.945,258.615,432.479,258.615z"/>
	<path style="fill:#231F20;" d="M326.101,274.79h69.122c4.468,0,8.088-3.62,8.088-8.088s-3.62-8.088-8.088-8.088h-69.122   c-4.468,0-8.088,3.62-8.088,8.088C318.013,271.169,321.634,274.79,326.101,274.79z"/>
	<path style="fill:#231F20;" d="M335.32,329.105h-9.219c-4.468,0-8.088,3.62-8.088,8.088c0,4.467,3.62,8.088,8.088,8.088h9.219   c4.468,0,8.088-3.621,8.088-8.088C343.407,332.725,339.787,329.105,335.32,329.105z"/>
	<path style="fill:#231F20;" d="M432.479,329.105h-69.124c-4.468,0-8.088,3.62-8.088,8.088c0,4.467,3.62,8.088,8.088,8.088h69.124   c4.468,0,8.088-3.621,8.088-8.088C440.566,332.725,436.945,329.105,432.479,329.105z"/>
	<path style="fill:#231F20;" d="M432.479,293.859H326.102c-4.468,0-8.088,3.62-8.088,8.088c0,4.468,3.62,8.088,8.088,8.088h106.377   c4.468,0,8.088-3.62,8.088-8.088C440.566,297.48,436.945,293.859,432.479,293.859z"/>
</g>
<g>
</g>
<g>
</g>
<g>
</g>
<g>
</g>
<g>
</g>
<g>
</g>
<g>
</g>
<g>
</g>
<g>
</g>
<g>
</g>
<g>
</g>
<g>
</g>
<g>
</g>
<g>
</g>
<g>
</g>
</svg>
