<?xml version="1.0" encoding="iso-8859-1"?>
<!-- Generator: Adobe Illustrator 19.0.0, SVG Export Plug-In . SVG Version: 6.00 Build 0)  -->
<svg xmlns="http://www.w3.org/2000/svg" xmlns:xlink="http://www.w3.org/1999/xlink" version="1.1" id="Layer_1" x="0px" y="0px" viewBox="0 0 512 512" style="enable-background:new 0 0 512 512;" xml:space="preserve">
<g>
	<path style="fill:#EAE8E8;" d="M90.026,503.975H63.13c-30.431,0-55.104-24.673-55.104-55.106V63.131   c0-30.433,24.673-55.106,55.104-55.106h385.739c30.431,0,55.106,24.673,55.106,55.106v385.739   c0,30.433-24.675,55.106-55.106,55.106H116.766"/>
	<path style="fill:#EAE8E8;" d="M448.868,8.025H63.13c-30.431,0-55.104,24.673-55.104,55.106v48.809h495.948V63.131   C503.974,32.697,479.299,8.025,448.868,8.025z"/>
</g>
<circle style="fill:#F57555;" cx="73.176" cy="62.187" r="16.049"/>
<circle style="fill:#F4B846;" cx="128.547" cy="62.187" r="16.049"/>
<circle style="fill:#62B07E;" cx="183.907" cy="62.187" r="16.05"/>
<polyline style="fill:#D8D4D4;" points="428.66,139.628 8.026,139.628 8.026,111.94 503.974,111.94 503.974,139.628   454.865,139.628 "/>
<rect x="37.727" y="168.521" style="fill:#F57555;" width="436.55" height="246.725"/>
<circle style="fill:#EAE8E8;" cx="256.002" cy="270.243" r="55.714"/>
<g>
	<circle style="fill:#E25A40;" cx="128.547" cy="370.896" r="16.05"/>
	<polygon style="fill:#E25A40;" points="285.057,268.532 240.535,297.913 240.535,242.565  "/>
</g>
<g>
	<path style="fill:#231F20;" d="M448.868,0H63.13C28.321,0,0.001,28.32,0.001,63.131v48.809v27.689v309.241   C0.001,483.68,28.321,512,63.13,512h26.896c4.433,0,8.025-3.592,8.025-8.025c0-4.433-3.592-8.025-8.025-8.025H63.13   c-25.96,0-47.079-21.12-47.079-47.081V147.653H428.66c4.433,0,8.025-3.592,8.025-8.025s-3.592-8.025-8.025-8.025H16.051v-11.639   h479.899v11.639h-41.084c-4.433,0-8.025,3.592-8.025,8.025s3.592,8.025,8.025,8.025h41.084v301.216   c0,25.961-21.12,47.081-47.081,47.081H116.766c-4.433,0-8.025,3.592-8.025,8.025c0,4.433,3.592,8.025,8.025,8.025h332.102   c34.811,0,63.131-28.32,63.131-63.131V139.628V111.94V63.131C511.999,28.32,483.679,0,448.868,0z M16.051,103.915V63.131   c0-25.961,21.119-47.081,47.079-47.081h385.739c25.961,0,47.081,21.12,47.081,47.081v40.784H16.051z"/>
	<path style="fill:#231F20;" d="M73.173,38.115c-13.274,0-24.074,10.799-24.074,24.073s10.8,24.074,24.074,24.074   c13.273,0,24.072-10.8,24.072-24.074S86.446,38.115,73.173,38.115z M73.173,70.213c-4.425,0-8.025-3.599-8.025-8.025   c0-4.424,3.599-8.024,8.025-8.024c4.424,0,8.023,3.599,8.023,8.024C81.196,66.613,77.597,70.213,73.173,70.213z"/>
	<path style="fill:#231F20;" d="M128.542,38.115c-13.274,0-24.074,10.799-24.074,24.073s10.8,24.074,24.074,24.074   c13.273,0,24.072-10.8,24.072-24.074S141.816,38.115,128.542,38.115z M128.542,70.213c-4.425,0-8.025-3.599-8.025-8.025   c0-4.424,3.599-8.024,8.025-8.024c4.424,0,8.023,3.599,8.023,8.024C136.565,66.613,132.966,70.213,128.542,70.213z"/>
	<path style="fill:#231F20;" d="M183.909,38.115c-13.274,0-24.074,10.799-24.074,24.073s10.8,24.074,24.074,24.074   s24.074-10.8,24.074-24.074S197.183,38.115,183.909,38.115z M183.909,70.213c-4.425,0-8.025-3.599-8.025-8.025   c0-4.424,3.599-8.024,8.025-8.024s8.025,3.599,8.025,8.024C191.934,66.613,188.335,70.213,183.909,70.213z"/>
	<path style="fill:#231F20;" d="M450.855,54.163h-141.23c-4.433,0-8.025,3.593-8.025,8.025c0,4.433,3.592,8.025,8.025,8.025h141.23   c4.433,0,8.025-3.592,8.025-8.025C458.88,57.756,455.288,54.163,450.855,54.163z"/>
	<path style="fill:#231F20;" d="M482.301,415.251v-246.73c0-4.433-3.592-8.025-8.025-8.025H37.726c-4.433,0-8.025,3.592-8.025,8.025   v246.73c0,4.433,3.592,8.025,8.025,8.025h436.55C478.708,423.276,482.301,419.683,482.301,415.251z M466.251,407.226h-420.5   v-230.68h420.5V407.226z"/>
	<path style="fill:#231F20;" d="M75.175,381.063h31.552c3.84,8.207,12.172,13.908,21.815,13.908c10.46,0,19.379-6.709,22.693-16.047   h285.591c4.433,0,8.025-3.592,8.025-8.025c0-4.432-3.592-8.025-8.025-8.025h-285.59c-3.313-9.34-12.233-16.05-22.694-16.05   c-11.245,0-20.711,7.751-23.345,18.19H75.175c-4.433,0-8.025,3.593-8.025,8.025C67.151,377.471,70.742,381.063,75.175,381.063z    M128.542,362.873c4.425,0,8.025,3.598,8.025,8.023c0,4.425-3.599,8.025-8.025,8.025s-8.025-3.599-8.025-8.025   C120.518,366.473,124.117,362.873,128.542,362.873z"/>
	<path style="fill:#231F20;" d="M256.001,333.973c35.143,0,63.734-28.591,63.734-63.733c0-35.143-28.592-63.734-63.734-63.734   c-35.143,0-63.734,28.592-63.734,63.734C192.266,305.383,220.858,333.973,256.001,333.973z M256.001,222.555   c26.294,0,47.684,21.391,47.684,47.684c0,26.292-21.391,47.683-47.684,47.683c-26.294,0-47.685-21.391-47.685-47.683   C208.315,243.946,229.707,222.555,256.001,222.555z"/>
	<path style="fill:#231F20;" d="M236.731,304.979c1.191,0.641,2.498,0.959,3.804,0.959c1.543,0,3.085-0.445,4.42-1.327   l44.523-29.382c2.316-1.529,3.679-4.145,3.602-6.92c-0.076-2.775-1.583-5.312-3.979-6.71l-44.523-25.966   c-2.481-1.448-5.549-1.457-8.04-0.026c-2.492,1.431-4.028,4.084-4.028,6.958v55.347   C232.51,300.865,234.131,303.579,236.731,304.979z M248.559,256.536l21.29,12.417l-21.29,14.05V256.536z"/>
	<path style="fill:#231F20;" d="M303.765,460.76h-95.528c-4.433,0-8.025,3.592-8.025,8.025c0,4.433,3.592,8.025,8.025,8.025h95.528   c4.433,0,8.025-3.592,8.025-8.025C311.79,464.352,308.198,460.76,303.765,460.76z"/>
	<path style="fill:#231F20;" d="M303.765,434.861h-95.528c-4.433,0-8.025,3.592-8.025,8.025s3.592,8.025,8.025,8.025h95.528   c4.433,0,8.025-3.592,8.025-8.025S308.198,434.861,303.765,434.861z"/>
</g>
<g style="opacity:0.1;">
	<path style="fill:#231F20;" d="M33.446,448.869V63.131c0-30.433,24.673-55.106,55.104-55.106H63.13   c-30.431,0-55.104,24.673-55.104,55.106v385.739c0,30.433,24.673,55.106,55.104,55.106h25.42   C58.118,503.975,33.446,479.303,33.446,448.869z"/>
</g>
<g style="opacity:0.1;">
	<rect x="45.93" y="170.415" style="fill:#231F20;" width="17.12" height="244.842"/>
</g>
<g>
</g>
<g>
</g>
<g>
</g>
<g>
</g>
<g>
</g>
<g>
</g>
<g>
</g>
<g>
</g>
<g>
</g>
<g>
</g>
<g>
</g>
<g>
</g>
<g>
</g>
<g>
</g>
<g>
</g>
</svg>
