<?xml version="1.0" encoding="iso-8859-1"?>
<!-- Generator: Adobe Illustrator 19.0.0, SVG Export Plug-In . SVG Version: 6.00 Build 0)  -->
<svg xmlns="http://www.w3.org/2000/svg" xmlns:xlink="http://www.w3.org/1999/xlink" version="1.1" id="Layer_1" x="0px" y="0px" viewBox="0 0 512 512" style="enable-background:new 0 0 512 512;" xml:space="preserve">
<g>
	<rect x="8.892" y="378.138" style="fill:#EAE8E8;" width="135.837" height="125.78"/>
	<rect x="188.083" y="378.138" style="fill:#EAE8E8;" width="135.837" height="125.78"/>
	<rect x="367.273" y="378.138" style="fill:#EAE8E8;" width="135.837" height="125.78"/>
</g>
<g style="opacity:0.1;">
	<rect x="8.892" y="378.138" style="fill:#231F20;" width="25.295" height="125.78"/>
</g>
<g style="opacity:0.1;">
	<rect x="188.083" y="378.138" style="fill:#231F20;" width="25.295" height="125.78"/>
</g>
<g style="opacity:0.1;">
	<rect x="367.273" y="378.138" style="fill:#231F20;" width="25.295" height="125.78"/>
</g>
<g>
	<rect x="8.892" y="378.138" style="fill:#6AC6D8;" width="135.837" height="33.393"/>
	<rect x="188.083" y="378.138" style="fill:#6AC6D8;" width="135.837" height="33.393"/>
	<rect x="367.273" y="378.138" style="fill:#6AC6D8;" width="135.837" height="33.393"/>
</g>
<g>
	<rect x="367.273" y="378.138" style="fill:#6BA9D6;" width="31.996" height="33.393"/>
	<rect x="188.083" y="378.138" style="fill:#6BA9D6;" width="31.996" height="33.393"/>
	<rect x="8.892" y="378.138" style="fill:#6BA9D6;" width="31.996" height="33.393"/>
</g>
<path style="fill:#6AC6D8;" d="M440.224,283.572h14.748c26.585,0,48.137-21.552,48.137-48.137s-21.551-48.137-48.137-48.137h-31.933  c7.141-12.956,11.214-27.842,11.214-43.682c0-50.055-40.579-90.632-90.632-90.632c-20.644,0-39.668,6.916-54.906,18.539  c-16.938-37.412-54.598-63.439-98.337-63.439c-59.585,0-107.891,48.304-107.891,107.891c0,6.993,0.674,13.829,1.946,20.453  c-0.648-0.017-1.292-0.051-1.946-0.051c-40.647,0-73.596,32.951-73.596,73.598s32.949,73.596,73.596,73.596h26.824h24.695h243.987  h25.933h10.428"/>
<g style="opacity:0.1;">
	<path style="fill:#231F20;" d="M190.379,8.084c-59.585,0-107.891,48.304-107.891,107.891c0,6.993,0.674,13.829,1.946,20.453   c-0.648-0.017-1.292-0.051-1.946-0.051c-40.647,0-73.596,32.951-73.596,73.598s32.949,73.596,73.596,73.596h25.883   c-40.647,0-73.596-32.949-73.596-73.596c0-35.014,24.46-64.299,57.221-71.746l-0.02-0.017c0,0,0.087-0.011,0.235-0.032   c0.532-0.12,1.061-0.248,1.597-0.356c4.055-1.124,13.509-5.328,14.579-20.186c0,0,0.002-0.017,0.002-0.026   c-0.009-0.544-0.019-1.089-0.019-1.636c0-55.2,41.456-100.71,94.93-107.113C199.063,8.356,194.754,8.084,190.379,8.084z"/>
</g>
<g>
	<circle style="fill:#FFFFFF;" cx="188.083" cy="217.035" r="16.168"/>
	<circle style="fill:#FFFFFF;" cx="256.001" cy="217.035" r="16.168"/>
	<circle style="fill:#FFFFFF;" cx="323.92" cy="217.035" r="16.168"/>
</g>
<g>
	<path style="fill:#231F20;" d="M355.496,80.584c-4.381-0.898-8.646,1.925-9.542,6.299c-0.895,4.375,1.925,8.646,6.299,9.542   c22.255,4.554,38.409,24.378,38.409,47.137c0,4.466,3.618,8.084,8.084,8.084c4.466,0,8.084-3.618,8.084-8.084   C406.83,113.156,385.24,86.67,355.496,80.584z"/>
	<path style="fill:#231F20;" d="M503.108,370.048h-76.261v-50.213c0-4.466-3.618-8.084-8.084-8.084h-86.76v-20.095h82.349   c4.466,0,8.084-3.618,8.084-8.084c0-4.466-3.618-8.084-8.084-8.084h-82.349v-35.59c9.409-3.337,16.168-12.324,16.168-22.862   c0-13.372-10.88-24.253-24.253-24.253c-13.372,0-24.253,10.88-24.253,24.253c0,10.539,6.759,19.525,16.168,22.862v35.591h-51.75   v-35.591c9.409-3.337,16.168-12.324,16.168-22.862c0-13.372-10.88-24.253-24.253-24.253c-13.372,0-24.253,10.88-24.253,24.253   c0,10.539,6.76,19.525,16.168,22.862v35.591h-51.75v-35.591c9.409-3.337,16.168-12.324,16.168-22.862   c0-13.372-10.88-24.253-24.253-24.253s-24.253,10.88-24.253,24.253c0,10.539,6.76,19.525,16.168,22.862v35.591h-97.51   c-36.124,0-65.511-29.389-65.511-65.511c0-36.125,29.389-65.514,65.511-65.514c0.341,0,0.679,0.014,1.016,0.025l0.719,0.023   c2.449,0.078,4.791-0.985,6.374-2.852c1.585-1.866,2.237-4.349,1.774-6.754c-1.194-6.222-1.8-12.591-1.8-18.928   c0.001-55.035,44.774-99.808,99.808-99.808c39.121,0,74.83,23.037,90.973,58.688c1.015,2.243,2.999,3.902,5.387,4.505   c2.391,0.599,4.922,0.083,6.88-1.412c14.479-11.044,31.77-16.882,50.003-16.882c45.518,0,82.548,37.03,82.548,82.548   c0,13.905-3.53,27.661-10.211,39.78c-1.38,2.504-1.334,5.551,0.119,8.014c1.455,2.462,4.101,3.973,6.961,3.973h31.933   c22.085,0,40.053,17.968,40.053,40.053s-17.967,40.053-40.053,40.053h-14.748c-4.465,0-8.084,3.619-8.084,8.084   c0,4.466,3.62,8.084,8.084,8.084h14.748c31,0,56.221-25.221,56.221-56.221s-25.221-56.221-56.221-56.221h-19.27   c4.363-11.305,6.636-23.406,6.636-35.598c0-54.432-44.284-98.716-98.716-98.716c-18.561,0-36.308,5.06-51.86,14.713   C271.429,23.108,232.616,0,190.379,0C126.43,0,74.403,52.027,74.403,115.976c0,4.218,0.231,8.447,0.69,12.649   c-41.585,3.75-74.286,38.804-74.286,81.351c0,45.039,36.641,81.68,81.68,81.68h97.51v20.095h-86.76   c-4.466,0-8.084,3.618-8.084,8.084v50.213H40.888H8.892c-4.466,0-8.084,3.62-8.084,8.084v33.393v92.39   c0,4.466,3.619,8.084,8.084,8.084H144.73c4.466,0,8.084-3.618,8.084-8.084v-92.39v-33.393c0-4.465-3.619-8.084-8.084-8.084h-43.408   V327.92h86.76c4.466,0,8.084-3.618,8.084-8.084v-28.18h51.75v78.392h-27.838h-31.996c-4.466,0-8.084,3.62-8.084,8.084v33.393v92.39   c0,4.466,3.618,8.084,8.084,8.084h135.837c4.466,0,8.084-3.618,8.084-8.084v-92.39v-33.393c0-4.465-3.618-8.084-8.084-8.084   h-59.834v-78.392h51.75v28.18c0,4.466,3.618,8.084,8.084,8.084h86.76v42.129h-11.413h-31.996c-4.466,0-8.084,3.62-8.084,8.084   v33.393v92.39c0,4.466,3.618,8.084,8.084,8.084h135.839c4.466,0,8.084-3.618,8.084-8.084v-92.39v-33.393   C511.193,373.667,507.574,370.048,503.108,370.048z M323.918,208.951c4.458,0,8.084,3.626,8.084,8.084s-3.626,8.084-8.084,8.084   c-4.458,0-8.084-3.626-8.084-8.084S319.46,208.951,323.918,208.951z M256,208.951c4.458,0,8.084,3.626,8.084,8.084   s-3.626,8.084-8.084,8.084c-4.458,0-8.084-3.626-8.084-8.084S251.542,208.951,256,208.951z M188.082,208.951   c4.458,0,8.084,3.626,8.084,8.084s-3.626,8.084-8.084,8.084s-8.084-3.626-8.084-8.084S183.624,208.951,188.082,208.951z    M16.976,386.217h15.828v17.225H16.976V386.217z M16.976,495.832V419.61h23.912h95.758v76.221H16.976z M136.646,403.442H48.972   v-17.225h87.674C136.646,386.217,136.646,403.442,136.646,403.442z M196.166,386.217h15.828v17.225h-15.828V386.217z    M196.166,495.832V419.61h23.912h95.756v76.221H196.166z M315.834,403.442h-87.672v-17.225h87.672V403.442z M495.024,403.442   H407.35v-17.225h87.674L495.024,403.442L495.024,403.442z M375.355,386.217h15.828v17.225h-15.828V386.217z M375.355,495.832   V419.61h23.912h95.758v76.221H375.355z"/>
	<path style="fill:#231F20;" d="M113.461,435.096H40.164c-4.466,0-8.084,3.618-8.084,8.084c0,4.466,3.619,8.084,8.084,8.084h73.297   c4.466,0,8.084-3.618,8.084-8.084C121.545,438.715,117.925,435.096,113.461,435.096z"/>
	<path style="fill:#231F20;" d="M113.461,463.804H40.164c-4.466,0-8.084,3.618-8.084,8.084c0,4.466,3.619,8.084,8.084,8.084h73.297   c4.466,0,8.084-3.618,8.084-8.084C121.545,467.424,117.925,463.804,113.461,463.804z"/>
	<path style="fill:#231F20;" d="M292.649,435.096h-73.297c-4.466,0-8.084,3.618-8.084,8.084c0,4.466,3.618,8.084,8.084,8.084h73.297   c4.466,0,8.084-3.618,8.084-8.084C300.733,438.715,297.114,435.096,292.649,435.096z"/>
	<path style="fill:#231F20;" d="M292.649,463.804h-73.297c-4.466,0-8.084,3.618-8.084,8.084c0,4.466,3.618,8.084,8.084,8.084h73.297   c4.466,0,8.084-3.618,8.084-8.084C300.733,467.424,297.114,463.804,292.649,463.804z"/>
	<path style="fill:#231F20;" d="M471.839,435.096h-73.297c-4.466,0-8.084,3.618-8.084,8.084c0,4.466,3.618,8.084,8.084,8.084h73.297   c4.466,0,8.084-3.618,8.084-8.084C479.923,438.715,476.304,435.096,471.839,435.096z"/>
	<path style="fill:#231F20;" d="M471.839,463.804h-73.297c-4.466,0-8.084,3.618-8.084,8.084c0,4.466,3.618,8.084,8.084,8.084h73.297   c4.466,0,8.084-3.618,8.084-8.084C479.923,467.424,476.304,463.804,471.839,463.804z"/>
</g>
<g>
</g>
<g>
</g>
<g>
</g>
<g>
</g>
<g>
</g>
<g>
</g>
<g>
</g>
<g>
</g>
<g>
</g>
<g>
</g>
<g>
</g>
<g>
</g>
<g>
</g>
<g>
</g>
<g>
</g>
</svg>
