<?xml version="1.0" encoding="iso-8859-1"?>
<!-- Generator: Adobe Illustrator 19.0.0, SVG Export Plug-In . SVG Version: 6.00 Build 0)  -->
<svg xmlns="http://www.w3.org/2000/svg" xmlns:xlink="http://www.w3.org/1999/xlink" version="1.1" id="Layer_1" x="0px" y="0px" viewBox="0 0 512 512" style="enable-background:new 0 0 512 512;" xml:space="preserve">
<polyline style="fill:#3E495A;" points="283.588,488.877 279.697,503.916 232.307,503.916 222.33,465.007 289.671,465.007 "/>
<rect x="200.629" y="404.512" style="fill:#EAE8E8;" width="110.732" height="60.491"/>
<path style="fill:#F4B846;" d="M385.493,239.449c0-71.517-57.977-129.493-129.493-129.493c-71.517,0-129.494,57.976-129.494,129.493  c0,42.413,20.401,80.046,51.912,103.664c-0.002,0-0.014,0.003-0.014,0.003s22.228,15.475,22.228,49.064v12.337h110.733v-12.371  c0.013,0.013,0.031,0.033,0.031,0.033c0-33.587,22.229-49.064,22.229-49.064s-0.029-0.008-0.038-0.01  C365.097,319.487,385.493,281.857,385.493,239.449z"/>
<g style="opacity:0.1;">
	<path style="fill:#231F20;" d="M225.932,404.516v-24.193c0-33.587-22.228-49.064-22.228-49.064s0.012-0.003,0.014-0.003   c-31.511-23.619-51.912-61.251-51.912-103.664c0-46.895,24.927-87.965,62.255-110.689c-50.932,17.427-87.553,65.707-87.553,122.546   c0,42.413,20.401,80.046,51.912,103.664c-0.002,0-0.014,0.003-0.014,0.003s22.228,15.475,22.228,49.064v12.337H225.932z"/>
</g>
<g>
	<path style="fill:#231F20;" d="M256,101.872c-75.861,0-137.578,61.717-137.578,137.577c0,43.575,19.966,83.595,54.796,109.869   c0.181,0.152,0.372,0.296,0.568,0.433c0.188,0.13,18.763,13.399,18.763,42.428v12.337v60.491c0,4.465,3.62,8.084,8.084,8.084   h15.424l8.419,32.833c0.917,3.575,4.139,6.076,7.831,6.076h47.39c3.685,0,6.903-2.491,7.827-6.06l3.89-15.039   c1.119-4.322-1.479-8.733-5.802-9.851c-4.327-1.123-8.734,1.48-9.851,5.802l-2.323,8.979h-34.858l-5.83-22.74h56.923h21.695   c4.466,0,8.084-3.62,8.084-8.084v-60.491v-11.621c0.022-0.237,0.031-0.474,0.031-0.716c0-28.647,18.041-41.91,18.764-42.428   c0.277-0.193,0.539-0.401,0.786-0.623c34.674-26.275,54.545-66.209,54.545-109.679C393.577,163.589,331.86,101.872,256,101.872z    M238.552,290.499H223.08c-2.144,0-3.889-1.744-3.889-3.887v-11.386h73.621v11.386c0,2.143-1.744,3.887-3.888,3.887h-15.475   c-4.466,0-8.084,3.618-8.084,8.084v97.848h-18.727v-97.848C246.636,294.118,243.017,290.499,238.552,290.499z M238.552,412.6   h34.896h29.834v14.078h-94.565V412.6H238.552z M289.671,456.923H222.33h-13.613v-14.077h94.565v14.077H289.671z M328.741,336.638   c-0.184,0.139-0.362,0.285-0.531,0.435c-4.386,3.382-24.578,20.765-24.891,54.316c-0.024,0.249-0.036,0.501-0.036,0.756v4.287   h-21.75v-89.764h7.391c11.059,0,20.056-8.997,20.056-20.055v-29.115c0-4.466-3.618-8.084-8.084-8.084s-8.084,3.618-8.084,8.084   v1.56h-73.621v-1.56c0-4.466-3.62-8.084-8.084-8.084c-4.465,0-8.084,3.618-8.084,8.084v29.115c0,11.059,8.997,20.055,20.057,20.055   h7.388v89.764h-21.751v-4.252c0-34.876-21.454-52.523-25.18-55.323c-0.088-0.072-0.179-0.143-0.271-0.211   c-30.935-23.188-48.677-58.614-48.677-97.196c0-66.946,54.464-121.409,121.41-121.409c66.945,0,121.409,54.463,121.409,121.409   C377.409,278.029,359.67,313.453,328.741,336.638z"/>
	<path style="fill:#231F20;" d="M353.53,235.886c0.291,0,0.585-0.016,0.881-0.049c4.439-0.481,7.647-4.469,7.165-8.909   c-5.017-46.278-40.559-84.101-86.431-91.978c-4.397-0.761-8.58,2.199-9.336,6.599c-0.756,4.4,2.199,8.58,6.599,9.336   c38.792,6.662,68.851,38.649,73.093,77.786C345.951,232.816,349.455,235.886,353.53,235.886z"/>
	<path style="fill:#231F20;" d="M354.172,245.679c-4.415-0.704-8.553,2.308-9.252,6.716c-0.398,2.504-0.909,5.015-1.518,7.466   c-1.078,4.332,1.561,8.719,5.894,9.797c0.654,0.163,1.312,0.241,1.957,0.241c3.625,0,6.924-2.457,7.838-6.134   c0.721-2.898,1.325-5.87,1.796-8.833C361.589,250.521,358.582,246.379,354.172,245.679z"/>
	<path style="fill:#231F20;" d="M97.92,237.543c0-4.466-3.62-8.084-8.084-8.084H26.541c-4.465,0-8.084,3.618-8.084,8.084   s3.62,8.084,8.084,8.084h63.296C94.302,245.627,97.92,242.009,97.92,237.543z"/>
	<path style="fill:#231F20;" d="M485.459,229.459h-63.297c-4.466,0-8.084,3.618-8.084,8.084s3.618,8.084,8.084,8.084h63.297   c4.466,0,8.084-3.618,8.084-8.084S489.925,229.459,485.459,229.459z"/>
	<path style="fill:#231F20;" d="M109.995,298.136c-1.712-4.123-6.444-6.083-10.566-4.368l-31.874,13.229   c-4.124,1.711-6.079,6.44-4.368,10.566c1.291,3.111,4.3,4.987,7.47,4.987c1.033,0,2.082-0.199,3.096-0.62l31.874-13.228   C109.751,306.991,111.707,302.26,109.995,298.136z"/>
	<path style="fill:#231F20;" d="M402.005,176.952c1.29,3.111,4.299,4.987,7.47,4.987c1.033,0,2.082-0.198,3.096-0.62l34.333-14.249   c4.123-1.711,6.079-6.441,4.368-10.566c-1.711-4.125-6.44-6.083-10.566-4.368l-34.333,14.249   C402.25,168.097,400.293,172.827,402.005,176.952z"/>
	<path style="fill:#231F20;" d="M317.118,92.177c1.011,0.417,2.056,0.614,3.085,0.614c3.174,0,6.186-1.882,7.475-4.998l14.2-34.351   c1.705-4.126-0.257-8.854-4.383-10.56c-4.126-1.7-8.854,0.258-10.56,4.383l-14.2,34.351   C311.03,85.743,312.991,90.471,317.118,92.177z"/>
	<path style="fill:#231F20;" d="M186.581,87.889c1.291,3.111,4.3,4.987,7.47,4.987c1.033,0,2.082-0.199,3.096-0.62   c4.124-1.712,6.079-6.441,4.368-10.566l-14.249-34.332c-1.712-4.125-6.443-6.081-10.566-4.368   c-4.124,1.712-6.079,6.441-4.368,10.566L186.581,87.889z"/>
	<path style="fill:#231F20;" d="M446.999,306.742l-31.893-13.186c-4.123-1.707-8.853,0.254-10.559,4.382   c-1.706,4.125,0.255,8.854,4.382,10.559l31.893,13.186c1.009,0.418,2.056,0.615,3.085,0.615c3.173,0,6.185-1.882,7.474-4.998   C453.087,313.176,451.125,308.447,446.999,306.742z"/>
	<path style="fill:#231F20;" d="M67.461,167.328l34.351,14.2c1.01,0.417,2.057,0.614,3.085,0.614c3.174,0,6.186-1.882,7.474-4.998   c1.706-4.126-0.257-8.854-4.383-10.56l-34.351-14.2c-4.126-1.703-8.854,0.257-10.559,4.383   C61.372,160.895,63.335,165.622,67.461,167.328z"/>
	<path style="fill:#231F20;" d="M132.789,349.321l-44.757,44.757c-3.157,3.158-3.157,8.276,0,11.433   c1.578,1.578,3.648,2.367,5.716,2.367c2.07,0,4.138-0.789,5.716-2.367l44.757-44.757c3.157-3.158,3.157-8.276,0-11.433   C141.064,346.165,135.945,346.165,132.789,349.321z"/>
	<path style="fill:#231F20;" d="M373.495,128.133c2.068,0,4.138-0.789,5.717-2.367l44.757-44.757c3.157-3.158,3.157-8.276,0-11.433   c-3.157-3.155-8.275-3.157-11.433,0l-44.757,44.756c-3.157,3.158-3.157,8.276,0,11.433   C369.357,127.344,371.425,128.133,373.495,128.133z"/>
	<path style="fill:#231F20;" d="M256,79.466c4.466,0,8.084-3.618,8.084-8.084V8.084C264.084,3.62,260.466,0,256,0   c-4.465,0-8.084,3.62-8.084,8.084v63.297C247.916,75.846,251.535,79.466,256,79.466z"/>
	<path style="fill:#231F20;" d="M379.212,349.321c-3.158-3.156-8.276-3.156-11.433,0c-3.157,3.158-3.157,8.276,0,11.433   l44.757,44.757c1.579,1.578,3.649,2.367,5.717,2.367c2.068,0,4.138-0.789,5.717-2.367c3.157-3.158,3.157-8.276,0-11.433   L379.212,349.321z"/>
	<path style="fill:#231F20;" d="M132.789,125.766c1.578,1.578,3.648,2.367,5.716,2.367s4.138-0.789,5.716-2.367   c3.157-3.158,3.157-8.276,0-11.433L99.464,69.575c-3.157-3.156-8.276-3.156-11.432,0c-3.157,3.158-3.157,8.276,0,11.433   L132.789,125.766z"/>
</g>
<g style="opacity:0.1;">
	<rect x="208.68" y="402.464" style="fill:#231F20;" width="17.246" height="56.051"/>
</g>
<g style="opacity:0.1;">
	
		<rect x="235.631" y="462.823" transform="matrix(-0.9724 0.2333 -0.2333 -0.9724 594.6509 897.3583)" style="fill:#231F20;" width="17.246" height="42.048"/>
</g>
<g>
</g>
<g>
</g>
<g>
</g>
<g>
</g>
<g>
</g>
<g>
</g>
<g>
</g>
<g>
</g>
<g>
</g>
<g>
</g>
<g>
</g>
<g>
</g>
<g>
</g>
<g>
</g>
<g>
</g>
</svg>
