<?xml version="1.0" encoding="iso-8859-1"?>
<!-- Generator: Adobe Illustrator 19.0.0, SVG Export Plug-In . SVG Version: 6.00 Build 0)  -->
<svg xmlns="http://www.w3.org/2000/svg" xmlns:xlink="http://www.w3.org/1999/xlink" version="1.1" id="Layer_1" x="0px" y="0px" viewBox="0 0 512 512" style="enable-background:new 0 0 512 512;" xml:space="preserve">
<path style="fill:#6AC6D8;" d="M90.026,503.975H63.131c-30.431,0-55.105-24.673-55.105-55.106V63.131  c0-30.433,24.673-55.106,55.105-55.106h385.738c30.431,0,55.106,24.673,55.106,55.106v385.739c0,30.433-24.675,55.106-55.106,55.106  H116.767"/>
<path style="fill:#3E495A;" d="M448.868,8.025H63.131c-30.432,0-55.105,24.673-55.105,55.106v48.809h495.948V63.131  C503.974,32.697,479.299,8.025,448.868,8.025z"/>
<circle style="fill:#F57555;" cx="73.176" cy="62.187" r="16.049"/>
<circle style="fill:#F4B846;" cx="128.547" cy="62.187" r="16.049"/>
<circle style="fill:#62B07E;" cx="183.907" cy="62.187" r="16.049"/>
<polyline style="fill:#738191;" points="428.66,139.628 8.026,139.628 8.026,111.94 503.974,111.94 503.974,139.628   454.865,139.628 "/>
<g>
	<path style="fill:#231F20;" d="M448.868,0H63.131C28.321,0,0.001,28.32,0.001,63.131v48.809v27.689v309.241   c0,34.811,28.32,63.131,63.13,63.131h26.895c4.432,0,8.025-3.592,8.025-8.025c0-4.433-3.593-8.025-8.025-8.025H63.131   c-25.96,0-47.08-21.12-47.08-47.081V147.653H428.66c4.433,0,8.025-3.592,8.025-8.025s-3.592-8.025-8.025-8.025H16.051v-11.639   h479.899v11.639h-41.084c-4.433,0-8.025,3.592-8.025,8.025s3.592,8.025,8.025,8.025h41.084v301.216   c0,25.961-21.12,47.081-47.081,47.081H116.767c-4.432,0-8.025,3.592-8.025,8.025c0,4.433,3.593,8.025,8.025,8.025h332.101   c34.811,0,63.131-28.32,63.131-63.131V139.628V111.94V63.131C511.999,28.32,483.679,0,448.868,0z M16.051,103.915V63.131   c0-25.961,21.12-47.081,47.08-47.081h385.738c25.961,0,47.081,21.12,47.081,47.081v40.784H16.051z"/>
	<path style="fill:#231F20;" d="M73.173,38.115c-13.275,0-24.074,10.799-24.074,24.073s10.799,24.074,24.074,24.074   c13.274,0,24.073-10.8,24.073-24.074S86.448,38.115,73.173,38.115z M73.173,70.213c-4.425,0-8.025-3.599-8.025-8.025   c0-4.424,3.599-8.024,8.025-8.024c4.424,0,8.024,3.599,8.024,8.024C81.197,66.613,77.597,70.213,73.173,70.213z"/>
	<path style="fill:#231F20;" d="M128.542,38.115c-13.275,0-24.074,10.799-24.074,24.073s10.799,24.074,24.074,24.074   c13.273,0,24.072-10.8,24.072-24.074S141.816,38.115,128.542,38.115z M128.542,70.213c-4.425,0-8.025-3.599-8.025-8.025   c0-4.424,3.599-8.024,8.025-8.024c4.423,0,8.023,3.599,8.023,8.024C136.565,66.613,132.966,70.213,128.542,70.213z"/>
	<path style="fill:#231F20;" d="M183.91,38.115c-13.275,0-24.074,10.799-24.074,24.073s10.799,24.074,24.074,24.074   c13.274,0,24.073-10.8,24.073-24.074C207.984,48.914,197.185,38.115,183.91,38.115z M183.91,70.213   c-4.425,0-8.025-3.599-8.025-8.025c0-4.424,3.599-8.024,8.025-8.024c4.424,0,8.024,3.599,8.024,8.024   C191.934,66.613,188.334,70.213,183.91,70.213z"/>
	<path style="fill:#231F20;" d="M450.855,54.163h-141.23c-4.433,0-8.025,3.592-8.025,8.025s3.592,8.025,8.025,8.025h141.23   c4.432,0,8.025-3.592,8.025-8.025C458.88,57.756,455.288,54.163,450.855,54.163z"/>
	<path style="fill:#231F20;" d="M100.242,211.222c-2.025-2.377-4.432-4.24-7.218-5.591c-2.787-1.35-5.796-2.024-9.023-2.024   c-3.287,0-6.31,0.675-9.067,2.024c-2.758,1.35-5.15,3.213-7.173,5.591c-2.025,2.376-3.609,5.194-4.753,8.449   c-1.145,3.258-1.716,6.822-1.716,10.695c0,3.872,0.571,7.437,1.716,10.694c1.144,3.257,2.728,6.074,4.753,8.451   c2.024,2.377,4.415,4.225,7.173,5.547c2.757,1.319,5.779,1.981,9.067,1.981c3.227,0,6.235-0.66,9.023-1.981   c2.786-1.32,5.194-3.169,7.218-5.547c2.024-2.376,3.609-5.194,4.753-8.451c1.144-3.257,1.716-6.822,1.716-10.694   c0-3.873-0.571-7.437-1.716-10.695C103.851,216.415,102.266,213.598,100.242,211.222z M94.037,236.793   c-0.529,1.936-1.276,3.609-2.246,5.016c-0.967,1.408-2.112,2.495-3.432,3.257c-1.32,0.763-2.773,1.144-4.357,1.144   c-1.643,0-3.124-0.381-4.445-1.144c-1.32-0.762-2.465-1.848-3.434-3.257c-0.967-1.407-1.716-3.082-2.245-5.016   c-0.527-1.938-0.792-4.08-0.792-6.426s0.264-4.504,0.792-6.47c0.529-1.966,1.276-3.653,2.245-5.061   c0.968-1.408,2.113-2.493,3.434-3.257c1.32-0.762,2.801-1.144,4.445-1.144c1.584,0,3.037,0.382,4.357,1.144   c1.32,0.764,2.465,1.849,3.432,3.257c0.968,1.408,1.716,3.097,2.246,5.061c0.527,1.967,0.792,4.124,0.792,6.47   S94.564,234.855,94.037,236.793z"/>
	<path style="fill:#231F20;" d="M129.158,205.895c-0.294,0.529-0.983,1.248-2.069,2.157c-1.087,0.912-2.363,1.835-3.828,2.773   c-1.468,0.939-2.965,1.747-4.49,2.421c-1.527,0.675-2.816,1.012-3.872,1.012v11.003c1.114,0,2.389-0.204,3.828-0.616   c1.438-0.41,2.831-0.938,4.181-1.584c1.349-0.646,2.597-1.334,3.741-2.069c1.144-0.733,1.981-1.452,2.509-2.157v26.672h-12.501   v10.649h35.737v-10.649h-11.178v-39.613H129.158z"/>
	<path style="fill:#231F20;" d="M165.29,249.511c2.024,2.377,4.415,4.225,7.173,5.547c2.757,1.319,5.779,1.981,9.067,1.981   c3.227,0,6.235-0.66,9.023-1.981c2.786-1.32,5.194-3.169,7.218-5.547c2.024-2.376,3.609-5.194,4.753-8.451   c1.144-3.257,1.716-6.822,1.716-10.694c0-3.873-0.571-7.437-1.716-10.695c-1.144-3.256-2.729-6.073-4.753-8.449   c-2.025-2.377-4.432-4.24-7.218-5.591c-2.787-1.35-5.796-2.024-9.023-2.024c-3.287,0-6.309,0.675-9.067,2.024   c-2.758,1.35-5.15,3.213-7.173,5.591c-2.025,2.376-3.609,5.194-4.753,8.449c-1.145,3.258-1.716,6.822-1.716,10.695   c0,3.872,0.571,7.437,1.716,10.694C161.681,244.318,163.265,247.135,165.29,249.511z M171.407,223.896   c0.529-1.966,1.276-3.653,2.245-5.061c0.968-1.408,2.113-2.493,3.434-3.257c1.32-0.762,2.801-1.144,4.445-1.144   c1.584,0,3.037,0.382,4.357,1.144c1.32,0.764,2.465,1.849,3.432,3.257c0.968,1.408,1.717,3.097,2.246,5.061   c0.527,1.967,0.792,4.124,0.792,6.47s-0.264,4.489-0.792,6.426c-0.529,1.936-1.276,3.609-2.246,5.016   c-0.967,1.408-2.112,2.495-3.432,3.257c-1.32,0.763-2.773,1.144-4.357,1.144c-1.643,0-3.124-0.381-4.445-1.144   c-1.32-0.762-2.465-1.848-3.434-3.257c-0.967-1.407-1.716-3.082-2.245-5.016c-0.527-1.938-0.792-4.08-0.792-6.426   C170.615,228.019,170.879,225.863,171.407,223.896z"/>
	<path style="fill:#231F20;" d="M226.686,205.895c-0.294,0.529-0.983,1.248-2.069,2.157c-1.087,0.912-2.363,1.835-3.828,2.773   c-1.468,0.939-2.965,1.747-4.49,2.421c-1.527,0.675-2.816,1.012-3.872,1.012v11.003c1.114,0,2.389-0.204,3.828-0.616   c1.438-0.41,2.83-0.938,4.181-1.584c1.349-0.646,2.597-1.334,3.741-2.069c1.144-0.733,1.979-1.452,2.509-2.157v26.672h-12.501   v10.649h35.737v-10.649h-11.178v-39.613H226.686z"/>
	<path style="fill:#231F20;" d="M262.82,249.511c2.023,2.377,4.414,4.225,7.172,5.547c2.758,1.319,5.78,1.981,9.068,1.981   c3.227,0,6.234-0.66,9.022-1.981c2.787-1.32,5.194-3.169,7.218-5.547c2.025-2.376,3.609-5.194,4.754-8.451   c1.143-3.257,1.716-6.822,1.716-10.694c0-3.873-0.572-7.437-1.716-10.695c-1.145-3.256-2.729-6.073-4.754-8.449   c-2.025-2.377-4.431-4.24-7.218-5.591c-2.787-1.35-5.795-2.024-9.022-2.024c-3.287,0-6.309,0.675-9.068,2.024   c-2.758,1.35-5.15,3.213-7.172,5.591c-2.025,2.376-3.609,5.194-4.754,8.449c-1.145,3.258-1.716,6.822-1.716,10.695   c0,3.872,0.57,7.437,1.716,10.694C259.211,244.318,260.796,247.135,262.82,249.511z M268.937,223.896   c0.529-1.966,1.276-3.653,2.245-5.061c0.967-1.408,2.113-2.493,3.434-3.257c1.32-0.762,2.8-1.144,4.445-1.144   c1.584,0,3.037,0.382,4.357,1.144c1.32,0.764,2.464,1.849,3.431,3.257c0.969,1.408,1.717,3.097,2.247,5.061   c0.526,1.967,0.792,4.124,0.792,6.47s-0.265,4.489-0.792,6.426c-0.529,1.936-1.276,3.609-2.247,5.016   c-0.967,1.408-2.111,2.495-3.431,3.257c-1.32,0.763-2.773,1.144-4.357,1.144c-1.645,0-3.124-0.381-4.445-1.144   c-1.32-0.762-2.466-1.848-3.434-3.257c-0.967-1.407-1.716-3.082-2.245-5.016c-0.529-1.938-0.792-4.08-0.792-6.426   C268.145,228.019,268.408,225.863,268.937,223.896z"/>
	<path style="fill:#231F20;" d="M324.216,205.895c-0.294,0.529-0.984,1.248-2.069,2.157c-1.087,0.912-2.364,1.835-3.828,2.773   c-1.469,0.939-2.966,1.747-4.491,2.421c-1.526,0.675-2.815,1.012-3.872,1.012v11.003c1.114,0,2.39-0.204,3.828-0.616   c1.438-0.41,2.832-0.938,4.181-1.584c1.35-0.646,2.598-1.334,3.741-2.069c1.145-0.733,1.982-1.452,2.51-2.157v26.672h-12.502   v10.649h35.737v-10.649h-11.178v-39.613H324.216z"/>
	<path style="fill:#231F20;" d="M360.349,249.511c2.023,2.377,4.414,4.225,7.172,5.547c2.758,1.319,5.78,1.981,9.068,1.981   c3.227,0,6.234-0.66,9.022-1.981c2.787-1.32,5.194-3.169,7.218-5.547c2.025-2.376,3.609-5.194,4.754-8.451   c1.143-3.257,1.715-6.822,1.715-10.694c0-3.873-0.572-7.437-1.715-10.695c-1.145-3.256-2.729-6.073-4.754-8.449   c-2.024-2.377-4.431-4.24-7.218-5.591c-2.787-1.35-5.795-2.024-9.022-2.024c-3.287,0-6.309,0.675-9.068,2.024   c-2.758,1.35-5.15,3.213-7.172,5.591c-2.025,2.376-3.609,5.194-4.754,8.449c-1.145,3.258-1.715,6.822-1.715,10.695   c0,3.872,0.57,7.437,1.715,10.694C356.739,244.318,358.324,247.135,360.349,249.511z M366.465,223.896   c0.529-1.966,1.276-3.653,2.245-5.061c0.967-1.408,2.113-2.493,3.434-3.257c1.32-0.762,2.8-1.144,4.445-1.144   c1.584,0,3.037,0.382,4.357,1.144c1.32,0.764,2.464,1.849,3.431,3.257c0.969,1.408,1.717,3.097,2.247,5.061   c0.526,1.967,0.792,4.124,0.792,6.47s-0.265,4.489-0.792,6.426c-0.529,1.936-1.276,3.609-2.247,5.016   c-0.967,1.408-2.111,2.495-3.431,3.257c-1.32,0.763-2.773,1.144-4.357,1.144c-1.645,0-3.124-0.381-4.445-1.144   c-1.32-0.762-2.466-1.848-3.434-3.257c-0.967-1.407-1.716-3.082-2.245-5.016c-0.529-1.938-0.792-4.08-0.792-6.426   C365.673,228.019,365.937,225.863,366.465,223.896z"/>
	<path style="fill:#231F20;" d="M421.744,205.895c-0.294,0.529-0.984,1.248-2.069,2.157c-1.087,0.912-2.364,1.835-3.828,2.773   c-1.469,0.939-2.965,1.747-4.491,2.421c-1.526,0.675-2.815,1.012-3.872,1.012v11.003c1.114,0,2.39-0.204,3.828-0.616   c1.438-0.41,2.831-0.938,4.181-1.584c1.35-0.646,2.598-1.334,3.741-2.069c1.145-0.733,1.982-1.452,2.51-2.157v26.672h-12.501   v10.649h35.737v-10.649h-11.178v-39.613H421.744z"/>
	<path style="fill:#231F20;" d="M100.242,293.328c-2.025-2.376-4.432-4.239-7.218-5.591c-2.787-1.349-5.796-2.024-9.023-2.024   c-3.287,0-6.31,0.675-9.067,2.024c-2.758,1.351-5.15,3.214-7.173,5.591c-2.025,2.376-3.609,5.194-4.753,8.45   c-1.145,3.257-1.716,6.822-1.716,10.694c0,3.873,0.571,7.437,1.716,10.695c1.144,3.256,2.728,6.073,4.753,8.45   c2.024,2.377,4.415,4.224,7.173,5.546c2.757,1.32,5.779,1.982,9.067,1.982c3.227,0,6.235-0.66,9.023-1.982   c2.786-1.32,5.194-3.168,7.218-5.546c2.024-2.377,3.609-5.194,4.753-8.45c1.144-3.258,1.716-6.822,1.716-10.695   c0-3.872-0.571-7.437-1.716-10.694C103.851,298.521,102.266,295.704,100.242,293.328z M94.037,318.898   c-0.529,1.937-1.276,3.609-2.246,5.018c-0.967,1.408-2.112,2.495-3.432,3.256c-1.32,0.764-2.773,1.145-4.357,1.145   c-1.643,0-3.124-0.381-4.445-1.145c-1.32-0.761-2.465-1.848-3.434-3.256c-0.967-1.408-1.716-3.082-2.245-5.018   c-0.527-1.937-0.792-4.078-0.792-6.426c0-2.346,0.264-4.502,0.792-6.47c0.529-1.964,1.276-3.653,2.245-5.061   c0.968-1.407,2.113-2.493,3.434-3.256s2.801-1.145,4.445-1.145c1.584,0,3.037,0.382,4.357,1.145s2.465,1.849,3.432,3.256   c0.968,1.408,1.716,3.098,2.246,5.061c0.527,1.968,0.792,4.124,0.792,6.47C94.829,314.821,94.564,316.962,94.037,318.898z"/>
	<path style="fill:#231F20;" d="M114.898,307.367c1.114,0,2.389-0.204,3.828-0.616c1.438-0.41,2.831-0.937,4.181-1.584   c1.349-0.645,2.597-1.333,3.741-2.069c1.144-0.732,1.981-1.452,2.509-2.157v26.672h-12.501v10.651h35.737v-10.651h-11.178v-39.612   h-12.059c-0.294,0.527-0.983,1.248-2.069,2.157c-1.087,0.909-2.363,1.835-3.828,2.772c-1.468,0.94-2.965,1.747-4.49,2.422   c-1.527,0.675-2.816,1.011-3.872,1.011C114.898,296.365,114.898,307.367,114.898,307.367z"/>
	<path style="fill:#231F20;" d="M160.537,323.168c1.144,3.256,2.728,6.073,4.753,8.45c2.024,2.377,4.415,4.224,7.173,5.546   c2.757,1.32,5.779,1.982,9.067,1.982c3.227,0,6.235-0.66,9.023-1.982c2.786-1.32,5.194-3.168,7.218-5.546   c2.024-2.377,3.609-5.194,4.753-8.45c1.144-3.258,1.716-6.822,1.716-10.695c0-3.872-0.571-7.437-1.716-10.694   c-1.144-3.257-2.729-6.074-4.753-8.45c-2.025-2.376-4.432-4.239-7.218-5.591c-2.787-1.349-5.796-2.024-9.023-2.024   c-3.287,0-6.309,0.675-9.067,2.024c-2.758,1.351-5.15,3.214-7.173,5.591c-2.025,2.376-3.609,5.194-4.753,8.45   c-1.145,3.257-1.716,6.822-1.716,10.694C158.82,316.346,159.392,319.91,160.537,323.168z M171.407,306.002   c0.529-1.964,1.276-3.653,2.245-5.061c0.968-1.407,2.113-2.493,3.434-3.256s2.801-1.145,4.445-1.145   c1.584,0,3.037,0.382,4.357,1.145c1.32,0.763,2.465,1.849,3.432,3.256c0.968,1.408,1.717,3.098,2.246,5.061   c0.527,1.968,0.792,4.124,0.792,6.47c0,2.348-0.264,4.489-0.792,6.426c-0.529,1.937-1.276,3.609-2.246,5.018   c-0.967,1.408-2.112,2.495-3.432,3.256c-1.32,0.764-2.773,1.145-4.357,1.145c-1.643,0-3.124-0.381-4.445-1.145   c-1.32-0.761-2.465-1.848-3.434-3.256c-0.967-1.408-1.716-3.082-2.245-5.018c-0.527-1.937-0.792-4.078-0.792-6.426   C170.615,310.126,170.879,307.97,171.407,306.002z"/>
	<path style="fill:#231F20;" d="M212.426,307.367c1.114,0,2.389-0.204,3.828-0.616c1.438-0.41,2.83-0.937,4.181-1.584   c1.349-0.645,2.597-1.333,3.741-2.069c1.144-0.732,1.979-1.452,2.509-2.157v26.672h-12.501v10.651h35.737v-10.651h-11.178v-39.612   h-12.06c-0.294,0.527-0.983,1.248-2.069,2.157c-1.087,0.909-2.362,1.835-3.828,2.772c-1.468,0.94-2.965,1.747-4.49,2.422   c-1.527,0.675-2.816,1.011-3.872,1.011v11.003H212.426z"/>
	<path style="fill:#231F20;" d="M258.066,323.168c1.145,3.256,2.729,6.073,4.754,8.45c2.023,2.377,4.414,4.224,7.172,5.546   c2.758,1.32,5.78,1.982,9.068,1.982c3.227,0,6.234-0.66,9.022-1.982c2.787-1.32,5.194-3.168,7.218-5.546   c2.025-2.377,3.609-5.194,4.754-8.45c1.143-3.258,1.716-6.822,1.716-10.695c0-3.872-0.572-7.437-1.716-10.694   c-1.145-3.257-2.729-6.074-4.754-8.45c-2.025-2.376-4.431-4.239-7.218-5.591c-2.787-1.349-5.795-2.024-9.022-2.024   c-3.287,0-6.309,0.675-9.068,2.024c-2.758,1.351-5.15,3.214-7.172,5.591c-2.025,2.376-3.609,5.194-4.754,8.45   c-1.145,3.257-1.716,6.822-1.716,10.694C256.35,316.346,256.92,319.91,258.066,323.168z M268.937,306.002   c0.529-1.964,1.276-3.653,2.245-5.061c0.967-1.407,2.113-2.493,3.434-3.256s2.8-1.145,4.445-1.145c1.584,0,3.037,0.382,4.357,1.145   c1.32,0.763,2.464,1.849,3.431,3.256c0.969,1.408,1.717,3.098,2.247,5.061c0.526,1.968,0.792,4.124,0.792,6.47   c0,2.348-0.265,4.489-0.792,6.426c-0.529,1.937-1.276,3.609-2.247,5.018c-0.967,1.408-2.111,2.495-3.431,3.256   c-1.32,0.764-2.773,1.145-4.357,1.145c-1.645,0-3.124-0.381-4.445-1.145c-1.32-0.761-2.466-1.848-3.434-3.256   c-0.967-1.408-1.716-3.082-2.245-5.018c-0.529-1.937-0.792-4.078-0.792-6.426C268.145,310.126,268.408,307.97,268.937,306.002z"/>
	<path style="fill:#231F20;" d="M309.956,307.367c1.114,0,2.39-0.204,3.828-0.616c1.438-0.41,2.832-0.937,4.181-1.584   c1.35-0.645,2.598-1.333,3.741-2.069c1.145-0.732,1.982-1.452,2.51-2.157v26.672h-12.502v10.651h35.737v-10.651h-11.178v-39.612   h-12.059c-0.294,0.527-0.984,1.248-2.069,2.157c-1.087,0.909-2.364,1.835-3.828,2.772c-1.469,0.94-2.966,1.747-4.491,2.422   c-1.526,0.675-2.815,1.011-3.872,1.011v11.003H309.956z"/>
	<path style="fill:#231F20;" d="M355.594,323.168c1.145,3.256,2.729,6.073,4.754,8.45c2.023,2.377,4.414,4.224,7.172,5.546   c2.758,1.32,5.78,1.982,9.068,1.982c3.227,0,6.234-0.66,9.022-1.982c2.787-1.32,5.194-3.168,7.218-5.546   c2.025-2.377,3.609-5.194,4.754-8.45c1.143-3.258,1.715-6.822,1.715-10.695c0-3.872-0.572-7.437-1.715-10.694   c-1.145-3.257-2.73-6.074-4.754-8.45c-2.024-2.376-4.431-4.239-7.218-5.591c-2.787-1.349-5.795-2.024-9.022-2.024   c-3.287,0-6.309,0.675-9.068,2.024c-2.758,1.351-5.15,3.214-7.172,5.591c-2.025,2.376-3.609,5.194-4.754,8.45   c-1.145,3.257-1.715,6.822-1.715,10.694C353.879,316.346,354.449,319.91,355.594,323.168z M366.465,306.002   c0.529-1.964,1.276-3.653,2.245-5.061c0.967-1.407,2.113-2.493,3.434-3.256c1.32-0.763,2.8-1.145,4.445-1.145   c1.584,0,3.037,0.382,4.357,1.145s2.464,1.849,3.431,3.256c0.969,1.408,1.717,3.098,2.247,5.061   c0.526,1.968,0.792,4.124,0.792,6.47c0,2.348-0.265,4.489-0.792,6.426c-0.529,1.937-1.276,3.609-2.247,5.018   c-0.967,1.408-2.111,2.495-3.431,3.256c-1.32,0.764-2.773,1.145-4.357,1.145c-1.645,0-3.124-0.381-4.445-1.145   c-1.32-0.761-2.466-1.848-3.434-3.256c-0.967-1.408-1.716-3.082-2.245-5.018c-0.529-1.937-0.792-4.078-0.792-6.426   C365.673,310.126,365.937,307.97,366.465,306.002z"/>
	<path style="fill:#231F20;" d="M407.484,307.367c1.114,0,2.39-0.204,3.828-0.616c1.438-0.41,2.831-0.937,4.181-1.584   c1.35-0.645,2.598-1.333,3.741-2.069c1.145-0.732,1.982-1.452,2.51-2.157v26.672h-12.501v10.651h35.737v-10.651h-11.178v-39.612   h-12.059c-0.294,0.527-0.984,1.248-2.069,2.157c-1.087,0.909-2.364,1.835-3.828,2.772c-1.469,0.94-2.965,1.747-4.491,2.422   c-1.526,0.675-2.815,1.011-3.872,1.011L407.484,307.367L407.484,307.367z"/>
	<path style="fill:#231F20;" d="M100.242,375.436c-2.025-2.377-4.432-4.24-7.218-5.591c-2.787-1.35-5.796-2.025-9.023-2.025   c-3.287,0-6.31,0.675-9.067,2.025c-2.758,1.35-5.15,3.213-7.173,5.591c-2.025,2.376-3.609,5.194-4.753,8.449   c-1.145,3.258-1.716,6.822-1.716,10.695c0,3.872,0.571,7.437,1.716,10.694c1.144,3.257,2.728,6.074,4.753,8.45   c2.024,2.377,4.415,4.225,7.173,5.547c2.757,1.319,5.779,1.981,9.067,1.981c3.227,0,6.235-0.66,9.023-1.981   c2.786-1.32,5.194-3.169,7.218-5.547c2.024-2.376,3.609-5.193,4.753-8.45c1.144-3.257,1.716-6.822,1.716-10.694   c0-3.873-0.571-7.437-1.716-10.695C103.851,380.629,102.266,377.812,100.242,375.436z M94.037,401.006   c-0.529,1.936-1.276,3.609-2.246,5.016c-0.967,1.408-2.112,2.495-3.432,3.257c-1.32,0.763-2.773,1.144-4.357,1.144   c-1.643,0-3.124-0.381-4.445-1.144c-1.32-0.762-2.465-1.849-3.434-3.257c-0.967-1.407-1.716-3.082-2.245-5.016   c-0.527-1.938-0.792-4.08-0.792-6.426c0-2.346,0.264-4.504,0.792-6.47c0.529-1.966,1.276-3.653,2.245-5.061   c0.968-1.408,2.113-2.493,3.434-3.257c1.32-0.762,2.801-1.144,4.445-1.144c1.584,0,3.037,0.382,4.357,1.144   c1.32,0.764,2.465,1.849,3.432,3.257c0.968,1.408,1.716,3.095,2.246,5.061c0.527,1.967,0.792,4.123,0.792,6.47   S94.564,399.07,94.037,401.006z"/>
	<path style="fill:#231F20;" d="M114.898,389.475c1.114,0,2.389-0.204,3.828-0.616c1.438-0.41,2.831-0.938,4.181-1.584   c1.349-0.645,2.597-1.334,3.741-2.069c1.144-0.734,1.981-1.452,2.509-2.157v26.672h-12.501v10.649h35.737v-10.649h-11.178v-39.613   h-12.059c-0.294,0.529-0.983,1.248-2.069,2.157c-1.087,0.912-2.363,1.835-3.828,2.773c-1.468,0.939-2.965,1.747-4.49,2.421   c-1.527,0.675-2.816,1.012-3.872,1.012C114.898,378.473,114.898,389.475,114.898,389.475z"/>
	<path style="fill:#231F20;" d="M160.537,405.275c1.144,3.257,2.728,6.074,4.753,8.45c2.024,2.377,4.415,4.225,7.173,5.547   c2.757,1.319,5.779,1.981,9.067,1.981c3.227,0,6.235-0.66,9.023-1.981c2.786-1.32,5.194-3.169,7.218-5.547   c2.024-2.376,3.609-5.193,4.753-8.45c1.144-3.257,1.716-6.822,1.716-10.694c0-3.873-0.571-7.437-1.716-10.695   c-1.144-3.256-2.729-6.073-4.753-8.449c-2.025-2.377-4.432-4.24-7.218-5.591c-2.787-1.35-5.796-2.025-9.023-2.025   c-3.287,0-6.309,0.675-9.067,2.025c-2.758,1.35-5.15,3.213-7.173,5.591c-2.025,2.376-3.609,5.194-4.753,8.449   c-1.145,3.258-1.716,6.822-1.716,10.695C158.82,398.453,159.392,402.018,160.537,405.275z M171.407,388.111   c0.529-1.966,1.276-3.653,2.245-5.061c0.968-1.408,2.113-2.493,3.434-3.257c1.32-0.762,2.801-1.144,4.445-1.144   c1.584,0,3.037,0.382,4.357,1.144c1.32,0.764,2.465,1.849,3.432,3.257c0.968,1.408,1.717,3.095,2.246,5.061   c0.527,1.967,0.792,4.123,0.792,6.47c0,2.346-0.264,4.489-0.792,6.426c-0.529,1.936-1.276,3.609-2.246,5.016   c-0.967,1.408-2.112,2.495-3.432,3.257c-1.32,0.763-2.773,1.144-4.357,1.144c-1.643,0-3.124-0.381-4.445-1.144   c-1.32-0.762-2.465-1.849-3.434-3.257c-0.967-1.407-1.716-3.082-2.245-5.016c-0.527-1.938-0.792-4.08-0.792-6.426   C170.615,392.233,170.879,390.076,171.407,388.111z"/>
	<path style="fill:#231F20;" d="M212.426,389.475c1.114,0,2.389-0.204,3.828-0.616c1.438-0.41,2.83-0.938,4.181-1.584   c1.349-0.645,2.597-1.334,3.741-2.069c1.144-0.734,1.979-1.452,2.509-2.157v26.672h-12.501v10.649h35.737v-10.649h-11.178v-39.613   h-12.06c-0.294,0.529-0.983,1.248-2.069,2.157c-1.087,0.912-2.362,1.835-3.828,2.773c-1.468,0.939-2.965,1.747-4.49,2.421   c-1.527,0.675-2.816,1.012-3.872,1.012v11.003H212.426z"/>
	<path style="fill:#231F20;" d="M258.066,405.275c1.145,3.257,2.729,6.074,4.754,8.45c2.023,2.377,4.414,4.225,7.172,5.547   c2.758,1.319,5.78,1.981,9.068,1.981c3.227,0,6.234-0.66,9.022-1.981c2.787-1.32,5.194-3.169,7.218-5.547   c2.025-2.376,3.609-5.193,4.754-8.45c1.143-3.257,1.716-6.822,1.716-10.694c0-3.873-0.572-7.437-1.716-10.695   c-1.145-3.256-2.729-6.073-4.754-8.449c-2.025-2.377-4.431-4.24-7.218-5.591c-2.787-1.35-5.795-2.025-9.022-2.025   c-3.287,0-6.309,0.675-9.068,2.025c-2.758,1.35-5.15,3.213-7.172,5.591c-2.025,2.376-3.609,5.194-4.754,8.449   c-1.145,3.258-1.716,6.822-1.716,10.695C256.35,398.453,256.92,402.018,258.066,405.275z M268.937,388.111   c0.529-1.966,1.276-3.653,2.245-5.061c0.968-1.408,2.113-2.493,3.434-3.257c1.32-0.762,2.8-1.144,4.445-1.144   c1.584,0,3.037,0.382,4.357,1.144c1.32,0.764,2.464,1.849,3.431,3.257c0.969,1.408,1.717,3.095,2.247,5.061   c0.526,1.967,0.792,4.123,0.792,6.47c0,2.346-0.265,4.489-0.792,6.426c-0.529,1.936-1.276,3.609-2.247,5.016   c-0.967,1.408-2.111,2.495-3.431,3.257c-1.32,0.763-2.773,1.144-4.357,1.144c-1.645,0-3.124-0.381-4.445-1.144   c-1.32-0.762-2.466-1.849-3.434-3.257c-0.967-1.407-1.716-3.082-2.245-5.016c-0.529-1.938-0.792-4.08-0.792-6.426   C268.145,392.233,268.408,390.076,268.937,388.111z"/>
	<path style="fill:#231F20;" d="M309.956,389.475c1.114,0,2.39-0.204,3.828-0.616c1.438-0.41,2.832-0.938,4.181-1.584   c1.35-0.645,2.598-1.334,3.741-2.069c1.145-0.734,1.982-1.452,2.51-2.157v26.672h-12.502v10.649h35.737v-10.649h-11.178v-39.613   h-12.059c-0.294,0.529-0.984,1.248-2.069,2.157c-1.087,0.912-2.364,1.835-3.828,2.773c-1.469,0.939-2.966,1.747-4.491,2.421   c-1.526,0.675-2.815,1.012-3.872,1.012v11.003H309.956z"/>
	<path style="fill:#231F20;" d="M355.594,405.275c1.145,3.257,2.729,6.074,4.754,8.45c2.023,2.377,4.414,4.225,7.172,5.547   c2.758,1.319,5.78,1.981,9.068,1.981c3.227,0,6.234-0.66,9.022-1.981c2.787-1.32,5.194-3.169,7.218-5.547   c2.025-2.376,3.609-5.193,4.754-8.45c1.143-3.257,1.715-6.822,1.715-10.694c0-3.873-0.572-7.437-1.715-10.695   c-1.145-3.256-2.73-6.073-4.754-8.449c-2.024-2.377-4.431-4.24-7.218-5.591c-2.787-1.35-5.795-2.025-9.022-2.025   c-3.287,0-6.309,0.675-9.068,2.025c-2.758,1.35-5.15,3.213-7.172,5.591c-2.025,2.376-3.609,5.194-4.754,8.449   c-1.145,3.258-1.715,6.822-1.715,10.695C353.879,398.453,354.449,402.018,355.594,405.275z M366.465,388.111   c0.529-1.966,1.276-3.653,2.245-5.061c0.968-1.408,2.113-2.493,3.434-3.257c1.32-0.762,2.8-1.144,4.445-1.144   c1.584,0,3.037,0.382,4.357,1.144c1.32,0.764,2.464,1.849,3.431,3.257c0.969,1.408,1.717,3.095,2.247,5.061   c0.526,1.967,0.792,4.123,0.792,6.47c0,2.346-0.265,4.489-0.792,6.426c-0.529,1.936-1.276,3.609-2.247,5.016   c-0.967,1.408-2.111,2.495-3.431,3.257c-1.32,0.763-2.773,1.144-4.357,1.144c-1.645,0-3.124-0.381-4.445-1.144   c-1.32-0.762-2.466-1.849-3.434-3.257c-0.967-1.407-1.716-3.082-2.245-5.016c-0.529-1.938-0.792-4.08-0.792-6.426   C365.673,392.233,365.937,390.076,366.465,388.111z"/>
	<path style="fill:#231F20;" d="M407.484,389.475c1.114,0,2.39-0.204,3.828-0.616c1.438-0.41,2.831-0.938,4.181-1.584   c1.35-0.645,2.598-1.334,3.741-2.069c1.145-0.734,1.982-1.452,2.51-2.157v26.672h-12.501v10.649h35.737v-10.649h-11.178v-39.613   h-12.059c-0.294,0.529-0.984,1.248-2.069,2.157c-1.087,0.912-2.364,1.835-3.828,2.773c-1.469,0.939-2.965,1.747-4.491,2.421   c-1.526,0.675-2.815,1.012-3.872,1.012L407.484,389.475L407.484,389.475z"/>
</g>
<g style="opacity:0.1;">
	<path style="fill:#231F20;" d="M33.439,448.869V63.131c0-30.433,24.674-55.106,55.105-55.106H63.131   c-30.432,0-55.105,24.673-55.105,55.106v385.739c0,30.433,24.674,55.106,55.105,55.106h25.413   C58.111,503.975,33.439,479.303,33.439,448.869z"/>
</g>
<g>
</g>
<g>
</g>
<g>
</g>
<g>
</g>
<g>
</g>
<g>
</g>
<g>
</g>
<g>
</g>
<g>
</g>
<g>
</g>
<g>
</g>
<g>
</g>
<g>
</g>
<g>
</g>
<g>
</g>
</svg>
